<?xml version="1.0" standalone="no"?>
<!DOCTYPE svg PUBLIC "-//W3C//DTD SVG 20010904//EN"
 "http://www.w3.org/TR/2001/REC-SVG-20010904/DTD/svg10.dtd">
<svg version="1.0" xmlns="http://www.w3.org/2000/svg"
 width="900.000000pt" height="900.000000pt" viewBox="0 0 900.000000 900.000000"
 preserveAspectRatio="xMidYMid meet">

<g transform="translate(0.000000,900.000000) scale(0.100000,-0.100000)"
fill="#000000" stroke="none">
<path d="M2300 8968 c-433 -244 -726 -462 -1046 -782 -183 -184 -271 -284
-419 -480 -351 -466 -604 -992 -756 -1573 -63 -239 -79 -341 -78 -478 1 -66 4
-109 6 -95 2 14 15 95 29 180 125 772 466 1509 989 2140 112 134 419 440 556
552 259 212 563 411 839 550 l35 17 -50 0 c-37 0 -64 -8 -105 -31z"/>
<path d="M3770 8991 c-8 -4 -41 -13 -72 -20 -32 -7 -61 -17 -64 -23 -8 -13 37
-3 125 27 36 13 57 24 46 24 -11 0 -27 -3 -35 -8z"/>
<path d="M4020 8991 c-8 -5 -62 -25 -120 -44 -58 -20 -190 -65 -295 -102 -104
-36 -210 -72 -235 -79 -25 -8 -81 -28 -125 -44 -44 -17 -150 -55 -235 -85
-231 -82 -359 -132 -550 -217 -52 -23 -125 -55 -161 -70 -135 -57 -319 -154
-319 -167 0 -8 3 -13 8 -11 4 2 75 37 157 78 151 75 189 93 365 171 112 49
389 155 545 209 61 21 153 54 205 74 112 43 238 86 253 86 6 0 29 9 51 19 23
11 70 29 106 40 61 19 403 136 425 145 6 2 -6 5 -25 5 -19 0 -42 -3 -50 -8z"/>
<path d="M4893 8982 c10 -10 17 -22 17 -27 0 -5 6 -16 13 -24 19 -23 57 -159
57 -206 0 -22 5 -47 11 -55 10 -15 10 -16 -7 113 -10 75 -70 217 -92 217 -13
0 -13 -3 1 -18z"/>
<path d="M5315 8968 c-3 -18 -28 -168 -56 -333 -75 -447 -177 -1040 -203
-1185 -9 -47 -16 -97 -16 -111 0 -35 -36 -65 -88 -74 -23 -4 -56 -18 -73 -32
-16 -14 -32 -23 -35 -21 -9 10 37 57 59 60 13 2 30 19 45 45 16 30 31 43 52
48 40 9 39 30 -7 105 -58 94 -59 97 -114 215 -70 152 -100 229 -148 381 -46
146 -47 154 -27 154 19 0 134 87 147 111 16 32 -6 22 -63 -27 -29 -25 -84 -62
-123 -81 -128 -65 -140 -72 -125 -72 8 0 37 11 65 24 49 24 64 21 65 -11 0 -7
7 -36 16 -65 56 -181 94 -281 149 -389 18 -36 47 -96 64 -135 18 -38 42 -83
55 -100 37 -48 40 -70 13 -82 -13 -6 -31 -26 -40 -45 -9 -19 -29 -39 -47 -47
-17 -7 -44 -31 -60 -53 -42 -58 -80 -83 -232 -153 -32 -15 -58 -31 -58 -36 0
-17 40 -9 98 21 33 17 65 30 72 30 7 0 27 9 44 19 17 11 50 24 74 31 23 6 58
24 77 41 25 22 47 31 81 34 26 2 50 9 54 15 7 11 26 -8 76 -75 30 -41 104
-163 104 -172 0 -3 16 -27 35 -53 19 -26 35 -50 35 -53 0 -10 142 -261 165
-292 32 -43 55 -91 55 -114 0 -11 -12 -32 -26 -46 -33 -33 -27 -51 17 -47 44
4 61 -10 95 -78 16 -30 39 -70 51 -89 13 -19 23 -40 23 -47 0 -7 11 -38 25
-68 14 -30 25 -60 25 -65 0 -13 27 -15 34 -2 5 8 -40 126 -72 186 -74 140 -96
176 -115 186 -12 7 -23 13 -25 14 -1 1 23 60 53 131 31 71 94 221 141 334 46
113 89 214 94 225 5 11 29 70 54 130 24 61 72 175 106 255 34 80 78 183 96
229 19 46 46 109 60 140 69 149 73 161 49 161 -9 0 -52 18 -96 41 -45 22 -83
38 -86 36 -2 -3 -22 -54 -43 -114 -61 -171 -178 -491 -210 -573 -117 -303
-154 -401 -196 -520 -26 -74 -50 -139 -54 -145 -4 -5 -15 -34 -25 -64 l-18
-54 -21 28 c-24 33 -36 56 -90 157 -21 40 -57 105 -80 143 -23 39 -56 93 -73
121 l-30 51 24 119 c13 65 36 171 50 234 13 63 27 126 29 140 3 14 16 77 30
140 14 63 29 138 34 165 12 69 82 397 125 585 34 148 41 183 84 383 l18 87
-25 0 c-14 0 -23 -2 -20 -5 6 -6 0 -37 -71 -375 -29 -135 -76 -362 -106 -505
-30 -143 -61 -291 -70 -330 -17 -78 -45 -209 -70 -330 -29 -142 -57 -255 -64
-255 -4 0 -21 24 -39 53 l-31 52 24 140 c14 77 30 172 35 210 6 39 15 93 20
120 30 153 96 538 110 640 16 114 42 257 86 480 18 88 18 105 -1 105 -8 0 -16
-13 -20 -32z m740 -908 c4 -6 11 -8 16 -5 5 4 9 2 9 -3 0 -5 11 -14 25 -20 14
-7 28 -18 31 -27 5 -12 -64 -199 -122 -330 -7 -16 -49 -118 -94 -225 -45 -107
-94 -224 -110 -260 -16 -36 -43 -101 -60 -145 -17 -44 -38 -95 -46 -112 -8
-18 -26 -63 -40 -100 -14 -38 -29 -72 -33 -78 -4 -5 -27 -58 -52 -117 -24 -59
-46 -108 -49 -108 -10 0 -50 70 -50 87 0 17 31 107 50 148 6 11 18 47 29 80
10 33 30 89 44 125 14 36 46 121 71 190 25 69 86 238 137 375 50 138 114 314
141 393 45 127 53 142 74 142 12 0 26 -5 29 -10z"/>
<path d="M6565 8917 c83 -45 165 -93 182 -105 17 -12 33 -22 36 -22 12 0 281
-185 371 -255 196 -153 389 -330 551 -505 108 -118 132 -145 226 -266 361
-460 636 -1000 789 -1549 123 -440 164 -740 164 -1200 0 -446 -32 -712 -135
-1110 -52 -205 -144 -478 -205 -611 -13 -29 -24 -55 -24 -58 0 -15 -137 -288
-205 -411 -308 -551 -737 -1034 -1265 -1421 -542 -398 -1210 -678 -1892 -794
-441 -74 -1005 -74 -1453 1 -1129 188 -2158 813 -2838 1723 -446 597 -735
1289 -846 2027 l-19 124 -1 -125 c-1 -102 5 -152 29 -270 50 -241 130 -508
223 -745 251 -638 667 -1233 1177 -1685 52 -46 97 -86 100 -89 3 -3 37 -31 75
-62 591 -472 1259 -780 1995 -918 125 -24 414 -61 473 -61 68 0 88 -9 81 -35
-4 -17 0 -24 15 -28 23 -6 41 30 21 43 -6 4 136 10 317 13 464 8 700 41 1123
154 740 200 1414 590 1965 1138 482 480 824 1011 1058 1645 181 489 267 988
267 1545 0 319 -25 601 -75 855 -8 41 -17 86 -19 100 -16 78 -71 280 -116 425
-179 572 -502 1141 -910 1600 -301 339 -676 651 -1055 877 -205 122 -239 138
-286 138 -44 0 -42 -1 106 -83z"/>
<path d="M3460 8880 c-9 -6 -10 -10 -3 -10 6 0 15 5 18 10 8 12 4 12 -15 0z"/>
<path d="M3410 8860 c-13 -8 -13 -10 2 -10 9 0 20 5 23 10 8 13 -5 13 -25 0z"/>
<path d="M3360 8839 c0 -5 5 -7 10 -4 6 3 10 8 10 11 0 2 -4 4 -10 4 -5 0 -10
-5 -10 -11z"/>
<path d="M3878 8823 c7 -3 16 -2 19 1 4 3 -2 6 -13 5 -11 0 -14 -3 -6 -6z"/>
<path d="M3818 8803 c7 -3 16 -2 19 1 4 3 -2 6 -13 5 -11 0 -14 -3 -6 -6z"/>
<path d="M3730 8783 c-154 -42 -457 -141 -475 -154 -5 -4 -66 -28 -135 -54
-147 -55 -354 -139 -495 -200 -16 -7 -48 -19 -70 -26 -22 -7 -44 -16 -50 -20
-5 -4 -41 -19 -80 -33 -124 -48 -234 -98 -246 -113 -13 -15 5 -10 84 26 23 10
101 42 172 70 72 29 139 56 150 61 11 6 38 16 60 24 22 8 96 38 165 66 69 28
159 64 200 80 41 16 109 43 150 60 89 38 410 151 529 186 123 36 157 59 41 27z"/>
<path d="M2884 8664 c-19 -15 -19 -15 1 -6 11 5 27 12 35 15 13 5 13 6 -1 6
-8 1 -24 -6 -35 -15z"/>
<path d="M2815 8640 c-3 -6 1 -7 9 -4 18 7 21 14 7 14 -6 0 -13 -4 -16 -10z"/>
<path d="M4971 8582 c-7 -31 -15 -64 -17 -72 -5 -13 -4 -13 4 0 16 25 41 119
33 124 -4 3 -13 -21 -20 -52z"/>
<path d="M2770 8619 c0 -5 5 -7 10 -4 6 3 10 8 10 11 0 2 -4 4 -10 4 -5 0 -10
-5 -10 -11z"/>
<path d="M2540 8535 c-33 -19 -12 -19 31 0 24 10 28 14 14 14 -11 0 -31 -6
-45 -14z"/>
<path d="M2450 8495 c-7 -8 -8 -15 -2 -15 5 0 15 7 22 15 7 8 8 15 2 15 -5 0
-15 -7 -22 -15z"/>
<path d="M2405 8479 c-9 -14 -2 -20 14 -10 8 6 9 11 3 15 -6 3 -14 1 -17 -5z"/>
<path d="M2300 8430 c-13 -8 -13 -10 2 -10 9 0 20 5 23 10 8 13 -5 13 -25 0z"/>
<path d="M2216 8395 c-15 -8 -34 -15 -41 -15 -7 0 -18 -7 -25 -15 -11 -14 -10
-14 11 -6 36 14 89 42 89 47 0 6 -2 5 -34 -11z"/>
<path d="M4516 8279 c-99 -38 -197 -78 -218 -89 -39 -20 -219 -91 -383 -150
-123 -44 -553 -226 -618 -261 -9 -5 -45 -20 -80 -33 -34 -13 -84 -34 -112 -46
-27 -12 -70 -32 -95 -42 -25 -11 -86 -40 -136 -64 -50 -24 -94 -44 -97 -44 -3
0 -54 -23 -114 -51 -59 -29 -160 -76 -223 -105 -102 -47 -142 -74 -112 -74 14
0 306 134 375 171 11 6 80 38 155 71 76 33 182 81 237 105 55 25 120 53 145
63 25 10 104 44 175 75 230 101 398 171 475 199 182 68 342 131 489 195 52 23
98 41 103 41 4 0 27 9 51 19 23 11 71 32 107 47 69 29 94 45 70 43 -8 -1 -96
-32 -194 -70z"/>
<path d="M2016 8295 c-11 -8 -15 -15 -10 -15 6 0 19 7 30 15 10 8 15 14 9 14
-5 0 -19 -6 -29 -14z"/>
<path d="M1936 8255 c-20 -14 -39 -25 -42 -25 -3 0 -30 -16 -60 -35 -30 -19
-57 -35 -60 -35 -3 0 -36 -19 -72 -43 -68 -44 -132 -117 -170 -192 -33 -67
-75 -264 -53 -251 6 4 11 20 11 35 0 47 36 167 65 218 15 26 33 58 39 70 6 13
25 28 41 34 17 6 52 20 78 31 30 12 64 18 90 16 l42 -4 -35 -17 c-19 -10 -48
-26 -65 -37 -16 -11 -37 -23 -45 -27 -28 -12 -59 -40 -53 -47 4 -3 13 0 22 8
9 8 57 35 107 60 81 41 95 45 120 36 l28 -11 -28 -14 c-16 -8 -32 -15 -37 -15
-5 0 -44 -22 -86 -50 -42 -27 -72 -50 -67 -50 12 0 184 88 199 101 5 5 17 9
28 9 14 0 17 -5 11 -22 -8 -25 -21 -37 -73 -64 -59 -30 -107 -64 -91 -64 8 0
40 14 70 31 113 64 110 63 125 43 19 -24 15 -48 -8 -52 -10 -2 -29 -14 -42
-26 -14 -13 -45 -31 -70 -40 -25 -10 -45 -22 -45 -27 0 -13 0 -13 86 31 74 38
108 44 83 14 -6 -8 -20 -14 -31 -14 -11 0 -22 -9 -25 -20 -3 -11 -11 -20 -17
-20 -19 0 -118 -98 -104 -102 9 -3 8 -11 -5 -31 -9 -14 -17 -33 -17 -41 0 -8
-9 -18 -20 -21 -11 -3 -20 -10 -20 -15 0 -5 -9 -12 -20 -15 -11 -3 -20 -11
-20 -16 0 -6 10 -3 22 5 34 24 48 20 48 -14 0 -24 -7 -35 -30 -48 -16 -9 -30
-21 -30 -26 0 -5 7 -3 15 4 18 15 45 6 45 -15 0 -8 4 -15 9 -15 5 0 9 28 9 63
-1 35 6 85 16 114 21 64 94 150 119 140 21 -8 22 -27 3 -27 -18 0 -29 -17 -21
-31 5 -7 16 -3 31 12 19 18 26 20 39 9 8 -7 15 -17 15 -23 0 -15 -32 -36 -55
-37 -21 0 -45 -17 -45 -32 0 -13 19 -9 48 11 63 45 100 31 45 -17 -21 -18 -23
-22 -8 -17 51 18 55 18 55 -3 0 -15 -18 -29 -75 -57 -41 -21 -75 -41 -75 -46
0 -14 38 -11 47 4 4 7 27 22 51 34 39 19 42 19 42 3 0 -11 -22 -29 -61 -50
-50 -26 -59 -34 -45 -42 17 -10 40 -2 31 12 -8 12 50 32 105 35 54 3 64 -5 28
-23 -15 -7 -18 -11 -8 -11 9 -1 20 3 25 8 6 4 22 11 38 15 20 5 29 2 33 -9 9
-23 -18 -47 -76 -70 -28 -11 -56 -26 -62 -32 -6 -7 24 3 66 22 43 19 84 35 92
35 16 0 19 -21 4 -36 -6 -6 -6 -21 -1 -39 7 -24 4 -35 -13 -53 -17 -19 -18
-25 -6 -32 19 -12 -27 -72 -73 -94 -42 -19 -66 -20 -121 -4 -85 24 -126 72
-166 192 -13 41 -25 63 -30 56 -7 -12 16 -85 46 -142 9 -17 13 -36 10 -44 -3
-8 0 -14 5 -14 6 0 27 -13 46 -30 18 -16 38 -30 44 -30 19 0 -4 -22 -38 -37
-19 -8 -34 -16 -31 -18 3 -4 105 29 112 36 3 2 27 2 55 1 61 -5 70 -29 19 -51
-84 -35 -157 -71 -163 -81 -11 -18 21 -11 81 19 33 15 75 35 94 44 204 90 271
122 260 125 -7 3 -27 -2 -44 -11 -57 -29 -156 -65 -156 -56 0 9 88 61 173 102
33 16 57 31 54 33 -4 5 -26 -4 -124 -47 -51 -22 -54 -14 -15 50 44 71 66 176
59 280 -9 122 -34 232 -74 333 -58 142 -134 208 -293 253 -36 10 -69 21 -73
25 -4 4 31 30 78 59 47 28 85 54 85 56 0 11 -19 4 -54 -20z m222 -383 c2 -7
-4 -12 -12 -12 -19 0 -113 -48 -122 -61 -7 -13 -54 -11 -54 1 0 12 160 92 174
87 5 -2 12 -9 14 -15z m25 -36 c4 -9 -8 -27 -29 -45 -18 -17 -34 -36 -34 -43
0 -7 10 -1 21 15 12 16 30 27 44 27 20 0 24 -7 34 -62 10 -58 9 -64 -11 -85
-19 -21 -99 -73 -111 -73 -2 0 -7 26 -11 59 -4 38 -15 69 -31 90 -13 18 -21
39 -18 47 7 19 103 84 124 84 9 0 19 -6 22 -14z"/>
<path d="M2146 7672 c-45 -31 -57 -52 -29 -52 10 0 33 18 51 40 39 47 32 50
-22 12z"/>
<path d="M4085 8180 c-22 -11 -46 -19 -52 -20 -7 0 -13 -5 -13 -11 0 -13 30
-4 90 27 54 28 32 31 -25 4z"/>
<path d="M7096 8163 c-10 -21 -39 -69 -64 -108 -26 -38 -54 -82 -62 -96 -23
-40 -199 -328 -235 -384 -18 -27 -62 -99 -100 -160 -37 -60 -96 -155 -130
-210 -35 -55 -106 -173 -158 -262 -53 -89 -111 -183 -129 -210 -19 -26 -70
-106 -114 -178 -44 -71 -139 -223 -210 -338 -71 -114 -154 -247 -184 -297 -90
-146 -131 -211 -175 -280 -40 -62 -133 -213 -179 -291 -11 -19 -54 -91 -95
-160 -40 -68 -99 -164 -132 -214 -82 -127 -155 -247 -162 -267 -8 -23 18 -13
29 12 5 10 23 36 41 57 43 51 146 191 204 278 26 39 64 93 84 120 19 28 69
100 110 160 42 61 88 128 104 150 16 22 82 117 146 210 65 94 122 174 126 179
9 10 39 -57 39 -86 0 -11 18 -47 40 -80 21 -33 42 -75 46 -94 6 -32 2 -39 -82
-130 -49 -53 -112 -125 -141 -159 -29 -35 -85 -98 -126 -142 -115 -120 -287
-324 -287 -339 0 -8 6 -14 13 -14 7 0 159 146 337 325 l325 325 8 -37 c4 -20
26 -74 48 -120 22 -45 44 -105 48 -133 l8 -50 -111 -82 c-61 -45 -167 -123
-235 -172 -68 -50 -178 -132 -245 -181 -66 -50 -160 -119 -208 -154 -49 -35
-88 -67 -88 -72 0 -16 22 -10 56 16 18 14 38 25 44 25 12 0 92 52 465 305 205
139 371 261 395 291 14 17 13 17 -16 -1 -57 -37 -208 -139 -276 -187 -38 -26
-68 -44 -68 -39 0 5 33 33 73 62 39 30 104 79 143 109 39 30 100 75 135 100
35 25 135 99 224 165 88 66 217 162 287 212 70 51 135 99 145 107 25 20 230
172 295 219 29 21 72 52 94 70 68 52 124 94 202 150 41 28 96 69 123 91 27 21
112 84 188 140 76 55 193 142 261 191 226 167 287 208 299 201 4 -3 16 -24 26
-47 l19 -41 -31 -27 c-38 -32 -118 -88 -325 -229 -86 -59 -189 -129 -229 -157
-40 -27 -118 -81 -174 -119 -94 -64 -186 -128 -344 -237 -36 -25 -116 -79
-178 -121 -148 -101 -202 -141 -203 -151 0 -7 213 134 570 378 520 355 725
493 847 573 56 37 102 74 103 82 0 25 -58 140 -75 147 -11 3 -30 -7 -53 -29
-20 -19 -71 -59 -112 -89 -41 -29 -77 -56 -80 -59 -3 -3 -52 -41 -110 -85 -58
-43 -132 -99 -165 -124 -33 -26 -83 -62 -110 -81 -28 -19 -56 -40 -64 -48 -8
-7 -26 -21 -40 -30 -14 -9 -48 -35 -76 -58 -27 -22 -104 -80 -170 -127 -66
-48 -133 -97 -149 -109 -15 -13 -45 -34 -65 -48 -20 -14 -71 -51 -114 -82 -42
-32 -110 -82 -149 -111 -40 -29 -211 -156 -381 -283 -169 -126 -311 -230 -315
-232 -5 -1 -14 26 -20 61 -6 34 -27 95 -47 134 -19 39 -35 84 -35 100 0 16 -4
33 -10 39 -6 6 220 239 618 639 345 347 634 635 642 641 8 6 45 42 81 80 68
71 91 116 65 131 -7 4 -28 29 -46 56 -41 62 -65 75 -81 45 -7 -13 -51 -68 -98
-123 -47 -55 -99 -118 -116 -139 -31 -39 -33 -41 -76 -78 -15 -13 -120 -129
-235 -258 -194 -219 -357 -400 -478 -530 -28 -30 -66 -72 -84 -94 -66 -79
-215 -236 -223 -236 -5 0 -9 5 -9 11 0 6 -20 42 -45 79 -25 37 -45 74 -45 81
-1 8 -9 32 -20 54 -21 43 -25 71 -11 79 7 5 100 137 136 193 6 9 64 94 130
189 66 95 154 223 195 284 41 61 92 131 112 156 21 25 43 55 49 67 13 25 152
232 240 357 33 47 77 110 98 140 20 30 70 102 110 160 40 58 117 170 172 250
55 80 125 180 155 224 30 43 54 87 54 98 0 11 -10 28 -22 38 -108 91 -134 110
-148 110 -9 0 -24 -17 -34 -37z m104 -60 c33 -27 60 -53 60 -59 0 -6 -9 -23
-20 -37 -11 -13 -71 -101 -133 -193 -62 -93 -135 -200 -162 -239 -65 -92 -215
-312 -312 -455 -42 -63 -80 -117 -83 -120 -4 -3 -39 -54 -78 -115 -39 -60 -82
-123 -95 -140 -25 -30 -76 -105 -171 -245 -28 -41 -54 -79 -59 -85 -9 -12 -50
-71 -145 -210 -38 -55 -88 -127 -111 -160 -23 -33 -70 -100 -103 -150 -34 -49
-64 -92 -68 -95 -3 -3 -31 -43 -62 -90 -31 -47 -93 -138 -139 -202 -46 -64
-122 -173 -169 -242 -91 -133 -125 -166 -44 -42 27 41 65 101 84 132 19 32 51
83 71 113 19 31 51 81 71 111 104 162 170 270 251 405 49 83 114 188 145 235
76 116 109 166 188 295 37 61 88 140 113 178 25 37 54 80 64 95 11 15 63 103
118 196 55 92 112 187 128 210 34 51 94 145 246 391 65 105 132 213 150 240
17 28 60 97 95 155 35 58 66 107 69 110 3 3 12 17 20 33 8 15 16 27 18 27 2 0
31 -21 63 -47z m156 -1098 c42 -52 48 -34 -61 -162 -38 -46 -74 -83 -78 -83
-4 0 -79 -73 -165 -161 -244 -251 -1454 -1463 -1482 -1485 -24 -19 13 26 91
111 20 22 63 69 96 105 33 36 91 100 128 142 41 47 72 74 81 71 8 -3 16 3 20
13 12 40 33 67 159 205 151 167 309 340 415 458 41 46 84 93 96 105 18 19 100
110 321 358 37 42 73 77 79 77 6 1 22 16 35 35 34 48 213 254 221 255 4 1 23
-19 44 -44z m-1566 -2129 c0 -2 -7 -7 -16 -10 -8 -3 -12 -2 -9 4 6 10 25 14
25 6z"/>
<path d="M3900 8109 c-331 -125 -474 -184 -665 -274 -55 -26 -126 -58 -157
-71 -31 -13 -110 -49 -175 -80 -269 -128 -358 -168 -393 -179 -47 -14 -125
-59 -109 -62 16 -4 361 149 574 254 39 19 95 45 125 58 30 13 105 47 165 75
127 61 236 107 283 121 18 6 70 26 115 46 45 19 120 48 167 65 47 17 94 35
105 41 11 6 26 12 34 13 12 2 52 35 41 34 -3 -1 -52 -19 -110 -41z"/>
<path d="M4490 8141 c-8 -5 -51 -21 -95 -36 -44 -15 -84 -30 -90 -35 -5 -4
-33 -14 -61 -23 -76 -24 -151 -59 -137 -64 6 -2 31 5 55 15 23 11 81 34 128
52 136 52 242 98 225 99 -5 0 -17 -3 -25 -8z"/>
<path d="M4395 8048 c-60 -20 -120 -51 -107 -55 7 -3 45 11 85 30 71 35 80 45
22 25z"/>
<path d="M4050 7970 c-13 -9 -13 -10 0 -10 8 0 22 5 30 10 13 9 13 10 0 10 -8
0 -22 -5 -30 -10z"/>
<path d="M4215 7970 c-3 -6 1 -7 9 -4 18 7 21 14 7 14 -6 0 -13 -4 -16 -10z"/>
<path d="M4000 7953 c-28 -9 -80 -34 -80 -38 0 -4 42 8 83 24 39 15 36 28 -3
14z"/>
<path d="M4065 7921 c-6 -4 -32 -17 -60 -27 -27 -10 -61 -24 -75 -31 -14 -7
-32 -13 -40 -13 -9 0 -24 -6 -35 -13 -11 -8 -42 -19 -70 -26 -50 -12 -193 -62
-252 -87 -17 -8 -36 -14 -42 -14 -6 0 -11 -4 -11 -10 0 -14 15 -12 63 9 58 25
163 63 282 101 55 18 116 39 135 48 68 29 140 64 140 68 0 8 -26 4 -35 -5z"/>
<path d="M3860 7900 c-8 -5 -10 -10 -5 -10 6 0 17 5 25 10 8 5 11 10 5 10 -5
0 -17 -5 -25 -10z"/>
<path d="M3790 7875 c-14 -8 -20 -14 -14 -15 5 0 19 7 30 15 24 18 16 19 -16
0z"/>
<path d="M1730 7850 c0 -5 7 -7 15 -4 8 4 15 8 15 10 0 2 -7 4 -15 4 -8 0 -15
-4 -15 -10z"/>
<path d="M3698 7843 c6 -2 18 -2 25 0 6 3 1 5 -13 5 -14 0 -19 -2 -12 -5z"/>
<path d="M3630 7824 c-108 -31 -247 -90 -237 -100 6 -6 266 94 282 108 5 4 7
7 5 7 -3 -1 -25 -7 -50 -15z"/>
<path d="M1770 7780 c-8 -5 -10 -10 -5 -10 6 0 17 5 25 10 8 5 11 10 5 10 -5
0 -17 -5 -25 -10z"/>
<path d="M1685 7744 c-28 -14 -56 -32 -64 -40 -13 -11 -12 -14 4 -20 12 -5 23
0 34 13 9 12 30 28 48 37 31 16 52 36 36 36 -4 0 -31 -12 -58 -26z"/>
<path d="M4492 7694 c6 -46 131 -258 136 -231 2 10 -24 66 -57 126 -34 60 -61
114 -61 120 0 5 -5 13 -12 17 -8 5 -10 -4 -6 -32z"/>
<path d="M3325 7703 c-19 -15 -19 -15 10 -8 37 8 57 25 30 25 -11 0 -29 -8
-40 -17z"/>
<path d="M4340 7690 c0 -16 5 -30 10 -30 6 0 10 -6 10 -14 0 -8 9 -31 21 -50
26 -44 22 -44 -94 -6 -103 35 -131 35 -135 2 -5 -36 17 -55 55 -49 36 6 82 -4
161 -35 47 -18 52 -24 53 -52 1 -23 3 -25 6 -8 5 26 16 28 37 7 20 -20 13 -36
-24 -57 -33 -19 -45 -40 -36 -64 5 -13 12 -11 41 12 20 15 40 35 46 46 15 27
-6 89 -40 122 -33 32 -49 93 -32 125 16 28 4 50 -36 66 -45 19 -43 20 -43 -15z"/>
<path d="M3235 7669 c-75 -29 -157 -70 -152 -75 6 -6 207 82 207 91 0 6 4 7
-55 -16z"/>
<path d="M3430 7683 c-8 -3 -33 -14 -55 -25 -22 -11 -65 -29 -95 -40 -30 -12
-50 -23 -43 -25 7 -3 27 2 45 11 18 8 68 29 111 46 42 18 77 34 77 36 0 5 -21
4 -40 -3z"/>
<path d="M1679 7630 c-31 -26 -15 -26 18 0 14 11 21 20 15 20 -5 0 -20 -9 -33
-20z"/>
<path d="M1605 7590 c-3 -5 3 -10 14 -10 12 0 21 5 21 10 0 6 -6 10 -14 10 -8
0 -18 -4 -21 -10z"/>
<path d="M1912 7585 c-37 -20 -49 -35 -29 -35 9 0 27 11 41 25 27 27 24 30
-12 10z"/>
<path d="M3023 7578 c-21 -10 -32 -28 -18 -28 10 0 65 30 65 35 0 8 -23 4 -47
-7z"/>
<path d="M3130 7560 c-41 -15 -88 -35 -105 -44 -16 -9 -35 -16 -42 -16 -19 0
-135 -52 -173 -77 -49 -32 -21 -29 58 8 37 17 76 35 87 39 127 54 165 69 197
79 20 7 42 19 48 27 15 17 20 18 -70 -16z"/>
<path d="M2938 7543 c-10 -2 -18 -9 -18 -14 0 -5 -9 -9 -19 -9 -11 0 -23 -5
-27 -12 -8 -12 2 -10 68 14 21 8 41 17 44 21 8 8 -20 8 -48 0z"/>
<path d="M1660 7520 c0 -5 7 -10 15 -10 8 0 15 5 15 10 0 6 -7 10 -15 10 -8 0
-15 -4 -15 -10z"/>
<path d="M1476 7448 c3 -35 9 -81 14 -103 8 -35 9 -31 5 24 -3 35 -5 81 -5
102 0 22 -4 39 -9 39 -6 0 -8 -27 -5 -62z"/>
<path d="M2825 7486 c-16 -6 -48 -20 -70 -30 -22 -10 -50 -23 -62 -29 -13 -6
-21 -12 -19 -14 6 -6 175 67 182 78 6 11 7 11 -31 -5z"/>
<path d="M3868 7453 c-50 -55 -40 -98 11 -49 15 14 30 26 34 26 14 0 6 -26
-15 -50 -43 -47 -51 -60 -39 -60 16 0 78 68 92 101 6 16 9 35 5 44 -9 25 -59
18 -88 -12z"/>
<path d="M1650 7439 c0 -5 5 -7 10 -4 6 3 10 8 10 11 0 2 -4 4 -10 4 -5 0 -10
-5 -10 -11z"/>
<path d="M1990 7425 c-14 -8 -20 -14 -14 -15 5 0 19 7 30 15 24 18 16 19 -16
0z"/>
<path d="M1615 7410 c-3 -5 -1 -10 4 -10 6 0 11 5 11 10 0 6 -2 10 -4 10 -3 0
-8 -4 -11 -10z"/>
<path d="M4273 7386 c4 -23 1 -39 -8 -46 -16 -14 -35 -5 -35 16 0 26 -18 15
-25 -16 -4 -16 -21 -41 -38 -56 -28 -23 -32 -24 -43 -10 -6 9 -13 16 -16 16
-2 0 -27 -22 -56 -50 -60 -58 -115 -88 -176 -96 -69 -10 -159 38 -237 127 -34
38 -65 66 -70 63 -16 -9 -10 -45 13 -77 17 -24 24 -49 26 -103 6 -101 -18
-177 -70 -227 -22 -21 -38 -41 -36 -43 3 -2 26 10 53 28 60 40 83 90 92 198 6
82 11 91 33 65 7 -8 39 -31 72 -51 56 -34 64 -36 122 -32 59 5 114 25 146 54
43 39 80 64 94 64 22 0 69 24 85 43 6 8 27 18 45 21 19 4 39 12 45 19 24 30
17 127 -10 127 -8 0 -10 -12 -6 -34z"/>
<path d="M1923 7397 c-36 -11 -44 -27 -15 -27 19 0 60 26 52 33 -3 2 -20 -1
-37 -6z"/>
<path d="M2585 7385 c-27 -14 -89 -42 -137 -64 -49 -22 -88 -45 -88 -51 0 -14
8 -13 44 9 17 10 78 40 136 66 58 26 109 52 115 56 18 17 -20 8 -70 -16z"/>
<path d="M2710 7369 l-25 -20 35 17 c43 20 47 24 29 24 -8 0 -25 -10 -39 -21z"/>
<path d="M4530 7328 c-24 -40 -25 -58 -4 -58 10 0 14 -6 10 -15 -10 -28 12
-15 44 25 35 44 35 60 1 39 -11 -7 -24 -10 -28 -5 -4 4 0 12 10 17 21 12 22
29 2 29 -8 0 -24 -15 -35 -32z"/>
<path d="M1650 7339 c0 -5 5 -7 10 -4 6 3 10 8 10 11 0 2 -4 4 -10 4 -5 0 -10
-5 -10 -11z"/>
<path d="M1957 7343 c-12 -11 -8 -23 7 -23 7 0 19 7 26 15 10 12 9 15 -7 15
-11 0 -23 -3 -26 -7z"/>
<path d="M2589 7320 c-108 -40 -176 -72 -163 -77 10 -3 240 90 253 102 9 10
-16 3 -90 -25z"/>
<path d="M2010 7279 c0 -5 5 -7 10 -4 6 3 10 8 10 11 0 2 -4 4 -10 4 -5 0 -10
-5 -10 -11z"/>
<path d="M1502 7260 c0 -14 2 -19 5 -12 2 6 2 18 0 25 -3 6 -5 1 -5 -13z"/>
<path d="M2070 7240 c-9 -6 -10 -10 -3 -10 6 0 15 5 18 10 8 12 4 12 -15 0z"/>
<path d="M2374 7225 c-10 -8 -14 -14 -9 -14 6 0 19 6 29 14 11 8 15 15 10 15
-6 0 -19 -7 -30 -15z"/>
<path d="M1506 7215 c4 -8 8 -15 10 -15 2 0 4 7 4 15 0 8 -4 15 -10 15 -5 0
-7 -7 -4 -15z"/>
<path d="M3330 7221 c-11 -8 -12 -16 -5 -37 12 -33 59 -53 86 -36 27 17 89 -5
126 -45 32 -33 33 -34 33 -10 0 32 -56 92 -105 110 -56 21 -117 29 -135 18z"/>
<path d="M1522 7143 c18 -99 21 -108 31 -121 6 -8 12 -23 14 -34 7 -47 21 -58
76 -58 50 0 79 -12 115 -47 7 -7 24 -13 37 -13 13 0 26 -4 29 -9 9 -15 -44
-31 -82 -25 -31 5 -41 2 -62 -21 -24 -26 -24 -26 -8 -73 10 -26 20 -67 23 -92
3 -24 12 -53 20 -64 55 -74 66 -93 76 -129 6 -22 17 -50 26 -63 8 -13 15 -27
15 -31 -1 -4 6 -24 15 -43 8 -19 19 -44 24 -55 4 -11 17 -47 27 -80 19 -59 48
-116 158 -320 30 -55 66 -125 80 -155 14 -30 37 -69 50 -87 53 -70 25 -58
-120 50 -69 50 -176 128 -237 172 -62 44 -149 107 -193 140 -44 33 -112 83
-151 110 -138 98 -197 141 -258 188 -34 27 -71 54 -82 60 -11 5 -47 31 -80 56
-32 25 -69 53 -81 61 -92 62 -252 181 -268 199 -23 26 -45 27 -52 4 -4 -10
-21 -54 -40 -99 -41 -98 -52 -144 -34 -144 7 0 38 -17 68 -37 30 -21 77 -52
106 -68 74 -44 113 -69 236 -149 108 -70 144 -93 267 -171 91 -57 438 -282
503 -325 30 -20 60 -39 65 -41 19 -8 392 -246 531 -340 21 -15 76 -50 122 -79
45 -29 82 -59 82 -66 0 -8 15 -31 33 -51 42 -48 117 -161 117 -177 0 -22 80
-135 100 -141 27 -9 78 3 116 26 33 20 69 25 78 11 7 -12 -39 -44 -96 -68 -27
-10 -48 -24 -48 -29 0 -20 40 -89 69 -119 27 -28 51 -73 51 -96 0 -5 -27 2
-60 16 -67 27 -70 28 -70 15 0 -4 21 -14 48 -21 26 -7 63 -21 82 -31 48 -25
256 -110 368 -150 50 -18 92 -37 92 -42 0 -5 -6 -7 -12 -4 -7 2 -47 14 -88 26
-41 11 -163 46 -270 77 -107 31 -224 65 -260 75 -36 10 -130 36 -210 59 -80
23 -183 52 -230 65 -47 13 -105 30 -130 38 -25 7 -76 23 -115 35 -38 11 -108
32 -155 46 -47 14 -114 34 -150 44 -63 17 -65 19 -77 61 -7 23 -14 62 -17 86
l-5 43 57 -18 c31 -10 100 -35 152 -55 52 -20 106 -40 120 -45 14 -4 133 -48
265 -98 271 -101 374 -136 381 -129 6 6 -471 197 -711 284 -38 14 -74 29 -80
33 -5 4 -26 13 -45 18 -19 6 -74 27 -122 46 -48 20 -92 36 -98 36 -18 0 -11
-35 10 -47 11 -7 22 -29 25 -50 16 -90 39 -155 60 -169 22 -14 115 -42 535
-159 113 -31 315 -90 450 -130 135 -40 266 -78 291 -85 38 -10 48 -17 52 -39
3 -14 16 -37 29 -51 27 -30 68 -113 68 -139 0 -11 5 -21 11 -23 7 -2 22 -33
35 -68 12 -36 32 -92 44 -124 12 -33 17 -63 13 -67 -5 -5 -49 23 -98 64 -127
102 -224 177 -229 177 -3 0 -34 21 -69 48 -75 56 -128 88 -302 186 -58 33
-110 30 -161 -9 -18 -14 -46 -25 -62 -25 -16 0 -40 -8 -53 -19 -13 -10 -35
-22 -49 -26 -47 -13 -80 -30 -80 -40 0 -9 39 -38 85 -63 29 -17 0 -15 -59 3
-68 21 -101 19 -117 -6 -9 -13 -27 -22 -49 -24 -23 -1 -36 -8 -38 -19 -2 -9
-13 -16 -25 -16 -11 0 -30 -9 -42 -20 l-22 -21 -62 31 c-60 30 -81 32 -81 7 0
-7 -7 -25 -15 -41 -9 -16 -12 -32 -8 -36 4 -3 53 -26 108 -50 196 -87 585
-289 744 -387 130 -80 361 -241 361 -252 0 -9 -84 -21 -150 -21 -59 0 -176
-56 -218 -105 -65 -73 -132 -253 -132 -354 0 -35 -3 -42 -16 -37 -9 3 -20 6
-25 6 -5 0 -9 8 -9 18 0 11 -17 28 -44 43 -40 22 -296 255 -296 269 0 3 17 16
38 28 20 11 54 36 75 55 32 30 37 41 37 78 0 47 -31 122 -73 178 -14 18 -72
81 -129 140 -147 151 -286 337 -356 478 -45 90 -80 188 -117 323 -48 180 -70
245 -108 318 -21 41 -42 79 -48 85 -5 7 -33 46 -62 88 -61 88 -127 167 -127
152 0 -6 17 -33 38 -60 137 -174 216 -332 263 -523 31 -129 95 -312 138 -398
l39 -77 -62 -24 c-33 -13 -92 -38 -131 -56 -38 -19 -95 -45 -125 -59 -76 -35
-181 -94 -205 -116 -11 -10 -35 -25 -53 -34 -71 -36 -191 -121 -266 -188 -20
-18 -20 -18 1 -18 12 0 23 4 25 9 5 13 79 68 193 142 179 117 287 175 495 266
58 25 109 49 115 54 13 13 25 11 25 -4 0 -7 -36 -31 -81 -52 -45 -22 -91 -50
-103 -61 -11 -12 -32 -25 -46 -29 -60 -18 -300 -174 -483 -313 -100 -76 -175
-154 -217 -224 -34 -60 -35 -177 -2 -263 55 -141 63 -154 239 -430 53 -83 143
-203 200 -268 26 -30 73 -83 103 -118 49 -56 180 -198 220 -239 87 -87 363
-341 381 -350 13 -7 38 -26 54 -42 28 -26 62 -51 215 -156 70 -48 154 -89 203
-98 23 -4 56 -22 82 -44 46 -39 156 -96 290 -148 231 -90 305 -114 329 -108
19 5 26 2 30 -12 4 -11 16 -24 29 -30 37 -20 139 -49 197 -57 30 -4 71 -13 92
-21 44 -15 130 -36 243 -57 44 -9 116 -23 160 -31 44 -9 106 -16 136 -16 31 0
76 -7 99 -15 24 -8 77 -15 120 -15 46 0 92 -6 113 -15 46 -19 139 -19 381 0
238 19 461 51 532 75 30 11 76 18 103 18 34 -1 63 6 97 24 31 16 75 28 119 32
112 11 177 22 225 38 162 55 213 73 274 94 76 27 225 96 386 179 93 48 105 57
103 80 -2 23 1 24 40 20 35 -5 51 0 97 29 30 19 91 56 135 82 127 77 312 212
345 254 17 21 51 48 76 60 76 37 219 221 309 398 l47 93 24 -16 c79 -52 276
124 418 376 43 76 170 351 207 447 22 57 53 152 69 210 16 59 36 127 44 152
17 53 122 292 163 370 55 107 115 264 141 370 44 175 46 210 44 609 -2 212 -5
387 -7 390 -13 12 -18 -19 -21 -141 -4 -204 -58 -374 -169 -533 -47 -67 -143
-195 -155 -205 -3 -3 -19 -23 -35 -45 -16 -22 -48 -62 -70 -90 -63 -77 -123
-171 -168 -267 -23 -48 -45 -87 -48 -88 -3 0 -13 17 -23 38 -10 20 -47 86 -83
145 -106 176 -142 323 -125 518 9 109 18 141 69 257 3 6 0 12 -5 12 -6 0 -31
-30 -55 -67 -24 -38 -50 -75 -58 -83 -8 -9 -19 -25 -26 -35 -127 -206 -177
-316 -233 -510 -17 -60 -37 -123 -44 -140 -7 -16 -19 -55 -25 -85 -7 -30 -21
-91 -31 -135 -11 -44 -29 -129 -40 -189 -12 -61 -24 -115 -28 -121 -5 -9 -26
-7 -77 6 -118 30 -286 44 -349 30 -91 -20 -228 -128 -305 -241 -38 -55 -131
-229 -131 -244 0 -5 -30 -46 -66 -93 -37 -46 -73 -97 -80 -111 -37 -73 -113
-169 -147 -187 -20 -11 -40 -29 -43 -40 -8 -24 -81 -95 -98 -95 -7 0 -25 -14
-42 -31 -58 -61 -194 -127 -384 -188 -30 -10 -68 -25 -85 -33 -16 -9 -64 -23
-105 -33 -88 -20 -161 -42 -210 -63 -19 -9 -42 -17 -50 -18 -8 -2 -21 -12 -29
-23 -12 -19 -16 -19 -40 -6 -22 11 -73 12 -282 7 -320 -9 -372 -8 -517 7 -175
18 -332 46 -477 86 -71 19 -157 42 -190 51 -69 18 -147 44 -158 54 -7 6 149
42 263 60 25 4 99 19 165 34 l120 26 52 -56 52 -57 26 21 c72 57 239 52 451
-13 17 -5 23 -2 27 17 4 13 35 51 69 85 61 59 66 62 168 89 58 15 141 35 185
45 78 17 395 124 505 170 72 30 209 123 287 196 66 61 173 197 173 220 0 20
-18 15 -31 -9 -23 -42 -99 -140 -126 -162 -15 -11 -35 -27 -43 -34 -53 -44
-88 -71 -107 -81 -20 -10 -22 -9 -16 6 5 13 3 15 -13 9 -119 -49 -610 -196
-653 -196 -9 0 4 14 29 30 25 16 51 30 59 30 8 0 39 8 70 19 31 10 102 33 159
51 56 18 105 37 108 41 9 15 -23 10 -88 -15 -72 -26 -167 -50 -174 -44 -9 10
112 82 141 84 36 3 122 32 150 51 18 12 18 13 2 13 -10 0 -27 -5 -37 -10 -11
-6 -21 -6 -24 -1 -7 11 -11 8 209 119 420 211 620 293 1095 451 168 56 314
106 325 111 11 5 36 12 55 15 59 11 140 37 140 46 0 5 7 9 15 9 21 0 18 30 -4
59 l-19 25 -58 -18 -59 -18 -46 26 c-25 14 -54 35 -64 46 -23 25 -86 27 -180
5 -37 -9 -72 -14 -78 -12 -11 3 95 67 112 67 11 0 22 28 13 33 -4 2 -20 7 -35
11 -15 4 -36 20 -46 36 -30 50 -133 137 -176 149 -21 5 -53 25 -72 43 -33 32
-33 32 -81 19 -101 -29 -96 -31 -109 46 -6 37 -15 78 -18 89 -6 20 -2 23 62
33 37 5 138 21 223 35 85 13 291 43 458 67 l302 43 44 70 c25 39 42 75 39 79
-7 11 -60 3 -233 -33 -198 -42 -293 -61 -840 -170 -272 -55 -526 -106 -565
-114 -38 -9 -88 -18 -110 -21 -94 -15 -241 -47 -250 -56 -19 -18 139 -15 280
5 61 9 130 18 155 21 25 3 56 8 70 10 80 13 305 45 320 45 24 0 28 -13 36
-113 6 -83 6 -85 -17 -92 -32 -10 -395 -189 -539 -266 -179 -96 -346 -197
-450 -271 -235 -167 -253 -182 -464 -373 -110 -99 -354 -380 -392 -451 -10
-19 -22 -34 -25 -34 -6 0 -43 60 -83 135 -26 48 -170 242 -279 375 -116 141
-521 533 -664 643 -23 17 -42 39 -43 47 0 8 -28 100 -62 204 -47 144 -72 205
-105 254 -24 35 -41 67 -38 70 2 3 56 -10 117 -28 62 -18 151 -43 198 -57 47
-13 94 -28 105 -32 32 -13 173 -51 190 -51 26 0 16 29 -12 36 -16 4 -37 15
-48 25 -11 10 -130 59 -265 109 -393 147 -385 144 -375 160 10 16 -29 98 -56
115 -23 16 -65 82 -57 90 13 13 139 75 152 75 9 0 19 7 22 15 4 8 11 15 16 15
5 0 67 -37 136 -83 70 -45 134 -87 143 -92 30 -18 169 -109 287 -187 119 -79
165 -98 140 -58 -7 11 -116 95 -243 187 -126 92 -279 203 -340 248 -180 133
-319 235 -448 327 -67 48 -133 95 -146 105 -13 10 -65 49 -115 86 -50 37 -98
73 -106 80 -8 7 -37 27 -65 45 -82 53 -105 78 -105 112 0 16 -4 30 -9 30 -5 0
-40 60 -77 133 -37 72 -90 175 -117 227 -101 189 -167 325 -167 341 0 9 -6 22
-14 28 -8 6 -26 50 -41 96 -14 46 -37 99 -51 117 -34 47 -40 64 -60 150 -20
91 -14 104 49 111 51 5 160 43 207 72 19 12 63 27 98 35 66 14 83 30 31 30
-34 0 -138 -27 -154 -41 -6 -4 -41 -11 -78 -15 -53 -5 -71 -4 -85 8 -28 26
-81 49 -105 47 -56 -5 -61 -1 -88 69 -15 37 -32 87 -40 112 -18 63 -28 70 -17
13z m-760 -558 c35 -24 115 -83 178 -130 63 -47 140 -103 170 -125 86 -61 330
-239 500 -364 168 -124 428 -312 555 -402 44 -32 125 -90 180 -131 191 -142
489 -357 665 -483 58 -41 110 -79 117 -85 6 -5 68 -50 137 -100 69 -49 123
-91 121 -93 -1 -2 -41 21 -88 52 -47 30 -118 76 -159 102 -40 26 -95 62 -123
79 -27 17 -95 61 -150 97 -92 59 -249 159 -335 213 -19 12 -107 69 -195 126
-146 96 -286 187 -485 314 -79 51 -290 189 -475 310 -60 39 -128 82 -150 96
-22 13 -120 75 -217 139 -97 63 -222 144 -278 179 -86 54 -101 67 -97 85 20
81 52 166 62 166 2 0 32 -20 67 -45z m2053 -1586 c94 -61 182 -119 197 -128
38 -22 35 -33 -6 -26 -23 5 -45 1 -72 -13 -68 -34 -92 -36 -117 -8 -37 41 -67
84 -67 95 0 7 -9 25 -20 41 -11 17 -29 43 -40 60 -11 16 -20 33 -20 37 0 4
-15 22 -32 41 -43 45 -29 37 177 -99z m5822 -514 c-8 -244 -41 -381 -149 -620
-193 -428 -201 -447 -252 -635 -39 -141 -40 -143 -79 -135 -17 4 -77 23 -132
42 -55 19 -140 48 -190 64 -49 17 -114 42 -145 56 -30 14 -100 41 -155 60 -54
19 -116 43 -137 54 -20 10 -44 19 -53 19 -15 0 -21 21 -8 33 3 4 8 24 10 45 6
73 60 331 105 506 30 119 84 267 133 370 52 106 147 255 152 239 3 -7 0 -51
-6 -100 -19 -178 23 -357 127 -533 59 -101 102 -186 102 -204 0 -9 9 -20 19
-25 24 -13 33 -2 49 61 28 113 102 228 325 508 136 170 219 307 258 425 l13
40 9 -55 c5 -30 6 -127 4 -215z m-1296 -27 c-26 -46 -35 -54 -68 -59 -272 -45
-474 -76 -1278 -194 -22 -3 -66 -11 -99 -16 -51 -9 -78 -7 -65 5 2 2 168 36
369 76 201 39 403 80 450 90 77 17 347 74 475 100 28 6 88 19 135 29 120 26
116 28 81 -31z m-4901 -162 c0 -3 -4 -8 -10 -11 -5 -3 -10 -1 -10 4 0 6 5 11
10 11 6 0 10 -2 10 -4z m30 -45 c0 -6 -4 -13 -10 -16 -5 -3 -10 1 -10 9 0 9 5
16 10 16 6 0 10 -4 10 -9z m-190 -31 c-12 -8 -12 -10 -1 -10 8 0 12 -3 8 -6
-9 -9 -28 6 -22 17 4 5 12 9 18 9 7 0 6 -4 -3 -10z m83 -7 c-7 -2 -19 -2 -25
0 -7 3 -2 5 12 5 14 0 19 -2 13 -5z m137 -9 c0 -2 -7 -4 -15 -4 -8 0 -15 4
-15 10 0 5 7 7 15 4 8 -4 15 -8 15 -10z m3303 -21 c-7 -2 -19 -2 -25 0 -7 3
-2 5 12 5 14 0 19 -2 13 -5z m-3428 -13 c-3 -5 -10 -10 -16 -10 -5 0 -9 5 -9
10 0 6 7 10 16 10 8 0 12 -4 9 -10z m5 -36 c0 -2 -7 -4 -15 -4 -8 0 -15 4 -15
10 0 5 7 7 15 4 8 -4 15 -8 15 -10z m103 -7 c3 -7 -3 -13 -14 -14 -15 -1 -16
1 -6 12 15 18 14 18 20 2z m274 7 c-3 -3 -12 -4 -19 -1 -8 3 -5 6 6 6 11 1 17
-2 13 -5z m-337 -24 c8 -5 12 -11 10 -14 -3 -2 -14 2 -24 10 -22 15 -10 19 14
4z m-300 -4 c0 -2 -7 -7 -16 -10 -8 -3 -12 -2 -9 4 6 10 25 14 25 6z m70 -6
c0 -5 -2 -10 -4 -10 -3 0 -8 5 -11 10 -3 6 -1 10 4 10 6 0 11 -4 11 -10z m40
0 c0 -5 -4 -10 -10 -10 -5 0 -10 5 -10 10 0 6 5 10 10 10 6 0 10 -4 10 -10z
m310 0 c0 -5 -4 -10 -10 -10 -5 0 -10 5 -10 10 0 6 5 10 10 10 6 0 10 -4 10
-10z m-395 -9 c3 -5 1 -12 -5 -16 -5 -3 -10 1 -10 9 0 18 6 21 15 7z m760 -1
c3 -5 1 -10 -4 -10 -6 0 -11 5 -11 10 0 6 2 10 4 10 3 0 8 -4 11 -10z m-430
-10 c3 -6 -1 -7 -9 -4 -18 7 -21 14 -7 14 6 0 13 -4 16 -10z m-410 -10 c3 -5
1 -10 -4 -10 -6 0 -11 5 -11 10 0 6 2 10 4 10 3 0 8 -4 11 -10z m50 0 c3 -5 2
-10 -4 -10 -5 0 -13 5 -16 10 -3 6 -2 10 4 10 5 0 13 -4 16 -10z m185 0 c0 -5
-5 -10 -11 -10 -5 0 -7 5 -4 10 3 6 8 10 11 10 2 0 4 -4 4 -10z m635 0 c3 -5
1 -10 -4 -10 -6 0 -11 5 -11 10 0 6 2 10 4 10 3 0 8 -4 11 -10z m-1026 -50
c113 -54 148 -71 311 -158 96 -50 172 -92 305 -167 136 -77 360 -233 580 -405
276 -215 576 -488 714 -650 35 -41 91 -105 125 -141 34 -37 78 -87 98 -112
l37 -45 58 20 c105 35 333 21 390 -24 9 -7 42 20 115 94 57 57 132 126 168
153 137 103 216 161 255 186 97 63 222 138 240 145 11 5 78 41 148 81 71 40
131 73 134 73 3 0 80 35 172 79 91 43 229 102 306 130 77 29 149 56 160 61 67
30 398 139 550 182 99 27 226 65 283 85 99 34 103 35 117 17 19 -26 13 -31
-53 -44 -54 -12 -407 -126 -687 -224 -144 -50 -441 -169 -550 -221 -38 -18
-101 -47 -140 -65 -176 -81 -506 -256 -550 -292 -5 -4 -71 -48 -145 -96 -233
-152 -308 -209 -442 -340 l-77 -75 -68 18 c-37 9 -118 20 -179 22 -95 5 -120
2 -168 -15 l-56 -20 -27 33 c-83 98 -109 130 -117 144 -10 18 -17 26 -171 191
-58 63 -134 139 -167 169 -34 29 -107 97 -162 151 -56 53 -157 144 -224 200
-68 57 -136 115 -150 130 -15 15 -38 33 -52 40 -14 7 -38 24 -55 37 -36 29
-61 46 -225 156 -69 46 -147 96 -175 112 -204 114 -381 207 -548 288 -107 52
-197 99 -201 105 -6 11 2 42 12 42 3 0 53 -23 111 -50z m621 30 c0 -5 -4 -10
-10 -10 -5 0 -10 5 -10 10 0 6 5 10 10 10 6 0 10 -4 10 -10z m40 0 c0 -5 -5
-10 -11 -10 -5 0 -7 5 -4 10 3 6 8 10 11 10 2 0 4 -4 4 -10z m-520 -13 c18 0
60 -27 43 -27 -7 0 -15 5 -18 10 -4 6 -14 8 -24 5 -9 -3 -26 2 -37 11 -19 15
-19 16 1 9 11 -4 27 -8 35 -8z m170 3 c-20 -13 -33 -13 -25 0 3 6 14 10 23 10
15 0 15 -2 2 -10z m443 -7 c-7 -2 -19 -2 -25 0 -7 3 -2 5 12 5 14 0 19 -2 13
-5z m-633 -25 c0 -6 -7 -7 -16 -4 -9 3 -18 6 -20 6 -3 0 -3 4 1 10 7 11 35 2
35 -12z m4400 2 c0 -5 -4 -10 -10 -10 -5 0 -10 5 -10 10 0 6 5 10 10 10 6 0
10 -4 10 -10z m-4355 -10 c3 -5 1 -10 -4 -10 -6 0 -11 5 -11 10 0 6 2 10 4 10
3 0 8 -4 11 -10z m925 -10 c0 -5 -7 -10 -15 -10 -8 0 -15 5 -15 10 0 6 7 10
15 10 8 0 15 -4 15 -10z m3510 -26 c0 -8 -4 -14 -10 -14 -5 0 -9 6 -7 13 1 6
-3 11 -10 10 -7 -2 -10 4 -6 12 4 12 9 13 19 4 8 -6 14 -18 14 -25z m-3483
-10 c-2 -2 -12 -2 -21 2 -15 6 -15 7 1 20 15 11 19 10 21 -2 2 -9 2 -18 -1
-20z m3273 26 c-8 -5 -22 -10 -30 -10 -13 0 -13 1 0 10 8 5 22 10 30 10 13 0
13 -1 0 -10z m-3781 -16 c3 -4 -4 -5 -16 -2 -12 3 -23 3 -25 -2 -2 -4 -19 -1
-38 6 l-35 13 54 -4 c29 -2 56 -7 60 -11z m569 -7 c8 -10 6 -13 -7 -13 -11 0
-17 6 -14 13 3 7 6 13 8 13 1 0 7 -6 13 -13z m-941 -3 c-3 -3 -12 -4 -19 -1
-8 3 -5 6 6 6 11 1 17 -2 13 -5z m556 -12 c-16 -11 -16 -14 -3 -23 13 -9 13
-10 0 -6 -23 6 -21 43 2 43 19 0 19 -1 1 -14z m-986 -8 c5 -14 -40 -34 -75
-34 l-26 0 34 25 c36 25 61 28 67 9z m4509 7 c-4 -5 0 -12 6 -14 8 -4 9 -6 2
-6 -6 -1 -17 6 -24 14 -10 12 -9 15 4 15 10 0 15 -4 12 -9z m-4011 -23 c13 -2
16 -6 9 -11 -7 -4 -20 1 -31 11 -10 9 -14 14 -8 11 5 -4 19 -9 30 -11z m959
-37 c-2 -3 -19 10 -37 28 l-32 34 37 -29 c20 -15 35 -30 32 -33z m3446 49 c0
-5 -2 -10 -4 -10 -3 0 -8 5 -11 10 -3 6 -1 10 4 10 6 0 11 -4 11 -10z m-70
-10 c0 -5 -4 -10 -10 -10 -5 0 -10 5 -10 10 0 6 5 10 10 10 6 0 10 -4 10 -10z
m-3994 -15 c15 20 18 17 8 -9 -7 -19 -54 -21 -54 -3 0 23 13 29 23 11 9 -16
11 -16 23 1z m469 5 c3 -5 -1 -10 -9 -10 -9 0 -16 5 -16 10 0 6 4 10 9 10 6 0
13 -4 16 -10z m72 -8 c0 -10 -9 -18 -18 -18 -17 0 -17 1 -1 18 21 21 21 21 19
0z m3039 3 c-11 -8 -24 -15 -30 -15 -5 0 -1 7 10 15 10 8 24 14 29 14 6 0 1
-6 -9 -14z m-4396 -9 c0 -18 -17 -29 -30 -21 -8 5 -7 11 1 21 15 18 29 18 29
0z m747 -8 c-3 -8 -6 -5 -6 6 -1 11 2 17 5 13 3 -3 4 -12 1 -19z m113 2 c-24
-15 -37 -11 -16 5 11 8 22 12 25 9 3 -3 -1 -9 -9 -14z m70 10 c0 -5 -4 -10
-10 -10 -5 0 -10 5 -10 10 0 6 5 10 10 10 6 0 10 -4 10 -10z m3520 -20 c0 -5
-4 -10 -10 -10 -5 0 -10 5 -10 10 0 6 5 10 10 10 6 0 10 -4 10 -10z m-4545
-155 c4 -11 21 -48 36 -83 16 -35 29 -69 29 -76 0 -7 9 -25 21 -40 11 -14 32
-50 47 -78 15 -29 44 -78 65 -109 40 -61 423 -448 476 -481 l32 -21 -30 -21
c-56 -38 -38 -61 37 -46 66 12 103 0 179 -58 186 -143 255 -193 318 -235 39
-26 95 -65 127 -87 31 -22 78 -50 105 -61 26 -12 89 -39 138 -61 97 -44 259
-102 340 -124 28 -7 75 -20 105 -29 231 -68 328 -87 550 -109 189 -19 151 -18
515 -10 251 6 282 5 294 -10 20 -23 43 -20 72 12 27 28 174 84 250 96 58 9
406 138 494 183 28 14 74 45 104 69 29 24 58 44 64 44 16 0 97 83 97 100 0 9
15 23 33 33 39 21 68 56 129 159 26 42 73 108 105 148 46 56 63 71 83 69 44
-2 46 1 16 24 l-28 23 85 134 c202 318 308 359 692 267 281 -67 504 -163 618
-267 l49 -45 -37 -39 c-54 -57 -141 -241 -240 -505 -109 -294 -182 -436 -305
-591 -66 -84 -92 -109 -135 -129 -24 -11 -59 -39 -77 -62 -18 -23 -60 -62 -93
-87 -74 -56 -214 -152 -222 -152 -3 0 -21 -11 -39 -25 -18 -14 -36 -25 -39
-25 -4 0 -21 -10 -38 -22 -49 -35 -95 -58 -117 -58 -10 0 -33 13 -50 30 -17
16 -40 30 -50 30 -25 0 -26 -16 -1 -29 11 -7 20 -25 23 -47 4 -34 2 -38 -31
-51 -20 -8 -61 -30 -91 -48 -30 -18 -66 -36 -80 -40 -14 -4 -59 -24 -100 -44
-41 -21 -100 -47 -130 -58 -203 -76 -253 -93 -279 -93 -16 0 -31 -5 -33 -10
-3 -11 -138 -37 -244 -49 -33 -3 -73 -15 -89 -25 -19 -12 -53 -20 -99 -23 -39
-3 -95 -14 -125 -24 -51 -19 -211 -43 -351 -54 -36 -2 -119 -9 -185 -15 -268
-24 -296 -24 -350 -2 -35 14 -73 20 -125 20 -46 -1 -92 6 -119 16 -24 9 -67
16 -96 16 -66 0 -239 30 -415 71 -74 17 -157 36 -185 42 -105 20 -215 58 -225
77 -5 10 -10 42 -10 70 0 57 -23 68 -28 13 -2 -17 -11 -38 -21 -47 -17 -15
-21 -15 -62 2 -24 10 -75 29 -114 42 -197 63 -365 140 -430 198 -28 25 -64 44
-102 55 -32 9 -89 35 -128 58 -77 47 -277 192 -340 247 -196 173 -459 429
-557 542 -142 166 -234 280 -266 330 -19 30 -38 57 -42 60 -4 3 -36 52 -70
110 -34 58 -70 116 -80 130 -38 54 -71 121 -84 174 -8 31 -17 60 -20 65 -4 5
-10 38 -15 73 -10 71 3 116 48 177 38 51 120 131 174 171 27 19 72 53 100 75
152 116 383 248 507 288 l45 15 6 -66 c3 -37 10 -76 14 -87z m1156 142 c-6 -8
-7 -17 -3 -22 4 -4 -3 -2 -15 4 -25 13 -31 24 -9 15 8 -3 17 -1 21 5 3 6 9 11
12 11 3 0 0 -6 -6 -13z m74 -6 c-3 -6 -11 -11 -17 -11 -6 0 -6 6 2 15 14 17
26 13 15 -4z m252 -11 c0 -25 -2 -27 -12 -13 -10 14 -5 36 11 43 0 0 1 -13 1
-30z m2940 14 c-3 -3 -12 -4 -19 -1 -8 3 -5 6 6 6 11 1 17 -2 13 -5z m628 -4
c3 -5 1 -10 -4 -10 -6 0 -11 5 -11 10 0 6 2 10 4 10 3 0 8 -4 11 -10z m-4850
-98 c74 -91 76 -94 59 -113 -21 -24 -32 -15 -59 51 -10 25 -33 65 -50 90 -74
107 -51 94 50 -28z m1235 94 c0 -3 -4 -8 -10 -11 -5 -3 -10 -1 -10 4 0 6 5 11
10 11 6 0 10 -2 10 -4z m2930 -16 c-20 -13 -33 -13 -25 0 3 6 14 10 23 10 15
0 15 -2 2 -10z m70 6 c0 -3 -4 -8 -10 -11 -5 -3 -10 -1 -10 4 0 6 5 11 10 11
6 0 10 -2 10 -4z m-3311 -32 c14 -12 -19 -1 -35 12 -18 14 -18 14 6 3 14 -6
27 -13 29 -15z m3891 16 c0 -5 -5 -10 -11 -10 -5 0 -7 5 -4 10 3 6 8 10 11 10
2 0 4 -4 4 -10z m-3805 -10 c3 -5 1 -10 -4 -10 -6 0 -11 5 -11 10 0 6 2 10 4
10 3 0 8 -4 11 -10z m3119 2 c3 -5 -1 -9 -9 -9 -8 0 -15 4 -15 9 0 4 4 8 9 8
6 0 12 -4 15 -8z m106 -8 c0 -2 -11 -4 -25 -4 -14 0 -25 4 -25 9 0 4 11 6 25
3 14 -2 25 -6 25 -8z m-2826 -9 c-4 -8 -8 -15 -10 -15 -2 0 -4 7 -4 15 0 8 4
15 10 15 5 0 7 -7 4 -15z m-29 -37 c10 -2 12 -8 5 -18 -12 -19 -19 -11 -24 26
-2 16 -1 21 1 12 2 -9 11 -18 18 -20z m3445 33 c0 -5 -7 -11 -14 -14 -10 -4
-13 -1 -9 9 6 15 23 19 23 5z m-3800 -26 c0 -8 -4 -15 -10 -15 -5 0 -10 7 -10
15 0 8 5 15 10 15 6 0 10 -7 10 -15z m-1095 -15 c-10 -16 -83 -51 -89 -42 -3
5 14 18 37 30 46 24 61 27 52 12z m770 0 c3 -5 1 -10 -4 -10 -6 0 -11 5 -11
10 0 6 2 10 4 10 3 0 8 -4 11 -10z m3305 6 c0 -3 -4 -8 -10 -11 -5 -3 -10 -1
-10 4 0 6 5 11 10 11 6 0 10 -2 10 -4z m-3005 -15 c3 -5 1 -12 -5 -16 -5 -3
-10 1 -10 9 0 18 6 21 15 7z m3075 -11 c0 -5 -9 -6 -20 -3 -11 3 -20 9 -20 13
0 5 9 6 20 3 11 -3 20 -9 20 -13z m-2658 -12 c-7 -7 -12 -8 -12 -2 0 6 3 14 7
17 3 4 9 5 12 2 2 -3 -1 -11 -7 -17z m48 12 c0 -5 -4 -10 -10 -10 -5 0 -10 5
-10 10 0 6 5 10 10 10 6 0 10 -4 10 -10z m-505 -10 c-3 -5 -23 -9 -43 -9 l-37
2 40 7 c22 4 41 8 43 9 2 0 0 -3 -3 -9z m-998 -16 c4 -11 -75 -54 -98 -54 -8
1 4 17 26 36 38 34 65 40 72 18z m4663 -4 c0 -5 -6 -10 -14 -10 -8 0 -23 -3
-33 -6 -16 -6 -16 -5 2 9 23 19 45 22 45 7z m100 -1 c-11 -8 -6 -9 20 -4 l35
5 -30 -13 c-21 -10 -33 -10 -41 -3 -9 8 -9 13 0 18 17 12 33 9 16 -3z m-70
-24 c-7 -9 -15 -13 -17 -11 -7 7 7 26 19 26 6 0 6 -6 -2 -15z m-3100 -15 c-24
-15 -36 -11 -14 4 10 8 21 12 24 10 2 -3 -2 -9 -10 -14z m3520 16 c0 -3 -4 -8
-10 -11 -5 -3 -10 -1 -10 4 0 6 5 11 10 11 6 0 10 -2 10 -4z m-5090 -16 c0 -5
0 -12 0 -15 0 -3 6 -18 15 -34 17 -35 8 -49 -45 -71 -27 -11 -33 -11 -41 1
-12 20 -11 29 5 29 7 0 26 12 42 27 39 36 14 43 -28 8 -30 -25 -33 -26 -45 -9
-19 26 -17 28 30 51 47 24 67 28 67 13z m4710 0 c-35 -24 -54 -31 -30 -11 14
11 30 21 35 21 6 0 3 -5 -5 -10z m-3085 -29 c-6 -5 -25 10 -25 20 0 5 6 4 14
-3 8 -7 12 -15 11 -17z m3430 9 c-3 -5 -1 -10 4 -10 6 0 11 5 11 11 0 5 5 7
11 3 14 -8 -8 -24 -35 -24 -15 0 -16 3 -6 15 14 17 24 20 15 5z m-4898 -42
c34 -33 41 -48 22 -48 -6 0 -26 -12 -45 -27 -27 -20 -38 -23 -47 -14 -9 9 -7
21 12 54 l24 41 -26 -17 c-32 -21 -37 -21 -37 -3 0 14 37 44 55 45 5 1 24 -13
42 -31z m4418 22 c-3 -5 -14 -10 -23 -9 -14 0 -13 2 3 9 27 11 27 11 20 0z
m72 4 c-3 -3 -12 -4 -19 -1 -8 3 -5 6 6 6 11 1 17 -2 13 -5z m523 -4 c0 -5 -2
-10 -4 -10 -3 0 -8 5 -11 10 -3 6 -1 10 4 10 6 0 11 -4 11 -10z m-4265 -18
c-3 -3 -11 0 -18 7 -9 10 -8 11 6 5 10 -3 15 -9 12 -12z m785 -17 c25 -27 22
-35 -4 -9 -15 14 -18 14 -36 -8 l-20 -23 17 32 c10 18 18 33 19 33 0 0 11 -11
24 -25z m2807 3 c-3 -8 -6 -5 -6 6 -1 11 2 17 5 13 3 -3 4 -12 1 -19z m103 18
c0 -3 -28 -19 -62 -36 -41 -21 -57 -25 -46 -14 10 10 37 26 60 35 24 9 44 17
46 18 1 1 2 -1 2 -3z m290 -6 c0 -5 -5 -10 -11 -10 -5 0 -7 5 -4 10 3 6 8 10
11 10 2 0 4 -4 4 -10z m147 4 c-3 -3 -12 -4 -19 -1 -8 3 -5 6 6 6 11 1 17 -2
13 -5z m-3416 -41 c-12 -20 -14 -14 -5 12 4 9 9 14 11 11 3 -2 0 -13 -6 -23z
m3067 2 c-8 -8 -48 8 -42 16 3 5 14 4 25 -2 12 -6 19 -12 17 -14z m122 0 c-14
-17 -30 -20 -30 -6 0 5 8 12 18 14 9 3 19 5 21 6 2 0 -2 -6 -9 -14z m-3835 -5
c13 -6 15 -9 5 -9 -8 0 -22 4 -30 9 -18 12 -2 12 25 0z m2765 0 c8 -5 11 -10
5 -10 -5 0 -17 5 -25 10 -8 5 -10 10 -5 10 6 0 17 -5 25 -10z m880 0 c0 -5 -5
-10 -11 -10 -5 0 -7 5 -4 10 3 6 8 10 11 10 2 0 4 -4 4 -10z m360 -6 c-57 -17
-72 -18 -40 0 14 8 39 14 55 14 26 1 24 -1 -15 -14z m-4925 -41 c29 -69 29
-80 0 -99 -23 -15 -28 -15 -41 -2 -15 14 -10 48 7 48 5 0 9 5 9 10 0 6 -11 8
-26 4 -40 -10 -48 14 -16 48 36 37 49 35 67 -9z m192 -10 c71 -88 68 -78 35
-121 -37 -46 -78 -70 -93 -55 -8 8 5 26 43 62 63 60 47 69 -20 10 -43 -37 -47
-39 -59 -23 -11 16 -7 23 32 60 42 40 56 64 37 64 -4 0 -23 -16 -42 -35 -39
-40 -55 -43 -70 -14 -9 17 -7 23 12 38 13 10 34 28 48 39 14 12 28 21 32 22 3
0 24 -21 45 -47z m4449 19 c-17 -16 -18 -16 -5 5 7 12 15 20 18 17 3 -2 -3
-12 -13 -22z m-226 14 c0 -11 -19 -15 -25 -6 -3 5 1 10 9 10 9 0 16 -2 16 -4z
m181 -13 c13 -15 12 -15 -8 -4 -24 12 -29 21 -14 21 5 0 15 -7 22 -17z m-3523
-21 c2 -13 8 -20 14 -16 8 5 9 1 5 -9 -4 -10 -10 -23 -13 -31 -3 -8 1 -16 10
-19 13 -4 12 -5 -1 -3 -13 1 -17 9 -15 29 3 25 1 27 -17 18 -30 -16 -38 -13
-13 5 23 16 29 39 12 47 -6 3 -5 4 2 3 7 -1 14 -12 16 -24z m3687 9 c-3 -6
-11 -11 -17 -11 -6 0 -6 6 2 15 14 17 26 13 15 -4z m-3770 -9 c-3 -3 -11 0
-18 7 -9 10 -8 11 6 5 10 -3 15 -9 12 -12z m2605 -13 c0 -18 -20 -18 -29 0 -9
16 -8 18 9 14 11 -3 20 -9 20 -14z m835 11 c-3 -5 -11 -10 -16 -10 -6 0 -7 5
-4 10 3 6 11 10 16 10 6 0 7 -4 4 -10z m-2777 -20 c-7 -10 -14 -18 -15 -16 -6
6 9 36 18 36 5 0 4 -9 -3 -20z m87 2 c-3 -3 -11 0 -18 7 -9 10 -8 11 6 5 10
-3 15 -9 12 -12z m2982 12 c-3 -3 -12 -4 -19 -1 -8 3 -5 6 6 6 11 1 17 -2 13
-5z m-3030 -24 c2 -23 -12 -27 -20 -6 -3 8 -1 17 6 20 7 2 12 5 12 5 1 1 1 -8
2 -19z m1857 11 c4 -5 -3 -7 -14 -4 -23 6 -26 13 -6 13 8 0 17 -4 20 -9z m83
3 c-3 -3 -12 -4 -19 -1 -8 3 -5 6 6 6 11 1 17 -2 13 -5z m753 -4 c8 -5 11 -10
5 -10 -5 0 -17 5 -25 10 -8 5 -10 10 -5 10 6 0 17 -5 25 -10z m105 0 c8 -13
-5 -13 -25 0 -13 8 -13 10 2 10 9 0 20 -4 23 -10z m175 0 c0 -5 -4 -10 -10
-10 -5 0 -10 5 -10 10 0 6 5 10 10 10 6 0 10 -4 10 -10z m-1183 -6 c-3 -3 -12
-4 -19 -1 -8 3 -5 6 6 6 11 1 17 -2 13 -5z m-1723 -39 c-4 -8 -11 -15 -16 -15
-6 0 -5 6 2 15 7 8 14 15 16 15 2 0 1 -7 -2 -15z m-84 -11 c0 -8 -4 -12 -10
-9 -5 3 -10 10 -10 16 0 5 5 9 10 9 6 0 10 -7 10 -16z m2870 12 c0 -2 -7 -6
-15 -10 -8 -3 -15 -1 -15 4 0 6 7 10 15 10 8 0 15 -2 15 -4z m-1100 -16 c0 -5
-5 -10 -11 -10 -5 0 -7 5 -4 10 3 6 8 10 11 10 2 0 4 -4 4 -10z m-3374 -57
c20 -32 45 -68 57 -80 l20 -22 -24 -20 c-13 -11 -26 -20 -29 -20 -3 0 -29 36
-58 80 l-53 80 23 19 c13 11 24 19 25 20 1 0 19 -26 39 -57z m1133 48 c9 -6 3
-10 -22 -13 -25 -3 -33 0 -30 9 6 15 32 17 52 4z m3048 -13 c-3 -8 -6 -5 -6 6
-1 11 2 17 5 13 3 -3 4 -12 1 -19z m-3014 -25 c-4 -10 -9 -11 -19 -2 -18 15
-18 15 5 15 11 0 17 -5 14 -13z m2927 13 c0 -3 -4 -8 -10 -11 -5 -3 -10 -1
-10 4 0 6 5 11 10 11 6 0 10 -2 10 -4z m-789 -24 c-7 -2 -18 1 -23 6 -8 8 -4
9 13 5 13 -4 18 -8 10 -11z m854 7 c12 -19 -5 -23 -22 -6 -16 16 -16 17 -1 17
9 0 20 -5 23 -11z m55 1 c8 -5 11 -10 5 -10 -5 0 -17 5 -25 10 -8 5 -10 10 -5
10 6 0 17 -5 25 -10z m1226 -38 c-10 -10 -76 10 -76 23 0 11 7 11 40 -2 22 -9
38 -18 36 -21z m-2236 4 c0 -3 -4 -8 -10 -11 -5 -3 -10 -1 -10 4 0 6 5 11 10
11 6 0 10 -2 10 -4z m977 -2 c-3 -3 -12 -4 -19 -1 -8 3 -5 6 6 6 11 1 17 -2
13 -5z m-2943 -29 c-7 -17 -7 -17 -31 -8 -16 6 -15 8 7 14 14 4 26 7 27 8 1 1
0 -6 -3 -14z m2811 -15 c3 -5 1 -10 -4 -10 -6 0 -11 5 -11 10 0 6 2 10 4 10 3
0 8 -4 11 -10z m-2221 -9 c3 -5 -1 -11 -9 -14 -9 -4 -12 -1 -8 9 6 16 10 17
17 5z m-744 -32 c40 -33 44 -49 9 -49 -10 0 -19 -5 -19 -11 0 -7 13 -9 38 -4
30 5 44 2 65 -15 33 -26 28 -36 -26 -50 -67 -17 -71 -20 -60 -31 11 -11 92 3
126 22 14 8 30 -1 83 -48 l65 -57 -3 -80 -3 -80 -98 -17 c-55 -10 -101 -20
-105 -23 -15 -16 16 -18 94 -6 55 8 89 9 95 3 19 -19 -20 -35 -127 -54 -59
-10 -109 -21 -112 -24 -16 -15 18 -16 118 -3 98 13 110 13 108 0 -4 -19 -80
-40 -256 -70 -60 -10 -57 -15 -29 63 9 22 16 76 17 120 3 175 -43 307 -130
373 -27 20 -49 40 -49 43 -1 3 34 10 77 16 42 5 78 11 80 11 2 1 21 -12 42
-29z m2140 21 c0 -5 -4 -10 -10 -10 -5 0 -10 5 -10 10 0 6 5 10 10 10 6 0 10
-4 10 -10z m-1386 -25 c-10 -8 -23 -14 -29 -14 -5 -1 1 8 15 19 14 10 27 17
29 14 3 -2 -4 -11 -15 -19z m1286 21 c0 -3 -4 -8 -10 -11 -5 -3 -10 -1 -10 4
0 6 5 11 10 11 6 0 10 -2 10 -4z m50 0 c0 -2 -7 -7 -16 -10 -8 -3 -12 -2 -9 4
6 10 25 14 25 6z m-1295 -26 c-3 -5 -12 -10 -18 -10 -7 0 -6 4 3 10 19 12 23
12 15 0z m2065 6 c0 -3 -4 -8 -10 -11 -5 -3 -10 -1 -10 4 0 6 5 11 10 11 6 0
10 -2 10 -4z m-3832 -24 c2 -7 -8 -16 -22 -22 -14 -5 -26 -15 -26 -21 0 -8 -5
-7 -16 2 -14 12 -13 16 12 36 30 24 45 25 52 5z m1820 -2 c7 -11 9 -20 4 -20
-4 0 -13 9 -20 20 -7 11 -9 20 -4 20 4 0 13 -9 20 -20z m1192 16 c0 -3 -4 -8
-10 -11 -5 -3 -10 -1 -10 4 0 6 5 11 10 11 6 0 10 -2 10 -4z m32 -8 c-5 -7
-12 -22 -15 -33 -5 -20 -5 -20 -6 1 0 11 4 25 11 32 16 16 23 15 10 0z m758
-5 c0 -3 -6 -3 -14 0 -7 3 -20 -3 -29 -14 -9 -10 -22 -19 -27 -19 -6 0 1 11
17 24 23 20 53 25 53 9z m-2010 -18 c7 -9 8 -15 2 -15 -5 0 -12 7 -16 15 -3 8
-4 15 -2 15 2 0 9 -7 16 -15z m1159 12 c-2 -1 -13 -9 -24 -17 -19 -14 -19 -14
-6 3 7 9 18 17 24 17 6 0 8 -1 6 -3z m-2260 -22 c11 -12 -16 -25 -50 -25 -43
0 -79 -14 -79 -31 0 -6 17 -8 43 -5 140 17 155 18 162 6 4 -6 5 -13 3 -16 -2
-2 -55 -12 -116 -22 -62 -11 -115 -22 -119 -26 -18 -17 18 -18 128 -2 82 12
124 15 131 8 24 -24 -5 -33 -162 -49 -59 -6 -90 -17 -90 -34 0 -8 13 -9 38 -4
87 17 224 30 228 23 10 -16 -96 -45 -205 -56 -39 -4 -66 -12 -69 -20 -3 -10
12 -12 68 -8 40 3 88 8 106 12 39 7 41 3 15 -40 -27 -45 -33 -96 -20 -171 9
-52 17 -70 41 -90 16 -14 35 -25 41 -25 28 -1 -21 -20 -50 -20 -27 0 -33 -4
-33 -21 0 -15 4 -19 16 -15 33 13 257 26 268 16 7 -5 21 -7 33 -4 22 6 43 -14
21 -20 -7 -2 -56 -9 -108 -16 -104 -14 -120 -18 -120 -31 0 -12 130 3 253 27
24 5 28 3 25 -13 -3 -14 -21 -21 -92 -33 -104 -18 -132 -43 -39 -35 32 2 75 7
96 11 25 4 37 2 37 -5 0 -14 -12 -18 -64 -24 -38 -5 -65 -21 -54 -33 4 -3 35
-1 70 4 34 5 65 8 67 6 2 -1 -6 -15 -18 -30 -11 -15 -21 -33 -21 -40 0 -8 -5
-14 -10 -14 -19 0 -105 48 -153 84 -25 19 -60 42 -79 52 -41 21 -180 122 -262
190 -34 27 -83 65 -109 83 l-48 33 7 61 c16 160 95 331 168 363 26 12 92 11
105 -1z m2961 11 c0 -3 -4 -8 -10 -11 -5 -3 -10 -1 -10 4 0 6 5 11 10 11 6 0
10 -2 10 -4z m2153 -49 c188 -67 251 -87 268 -87 37 -1 41 -16 18 -71 -12 -30
-24 -56 -26 -58 -3 -4 -37 9 -135 53 -30 13 -47 27 -48 39 0 21 -5 21 66 -2
81 -25 134 -34 134 -22 0 5 -8 12 -17 15 -10 3 -67 19 -128 36 -63 18 -125 43
-144 58 -19 14 -64 40 -100 58 -36 18 -60 33 -53 34 8 0 82 -24 165 -53z
m-3922 -3 c19 -19 26 -32 17 -29 -10 4 -18 12 -18 17 0 6 -6 8 -14 5 -8 -3
-13 1 -12 11 2 30 -27 18 -31 -12 -2 -17 -8 -37 -13 -45 -7 -12 -9 -8 -10 16
0 17 6 34 13 37 6 3 3 5 -8 3 -13 -1 -22 -12 -26 -32 -5 -22 -7 -24 -8 -8 -2
31 9 53 25 53 8 0 14 5 14 10 0 22 38 8 71 -26z m1813 28 c2 -4 -4 -9 -15 -9
-11 -1 -17 2 -14 8 7 11 22 12 29 1z m-234 -36 c0 -9 -32 -36 -42 -36 -6 0 0
9 13 20 25 21 29 23 29 16z m90 -22 c0 -2 -7 -4 -15 -4 -8 0 -15 4 -15 10 0 5
7 7 15 4 8 -4 15 -8 15 -10z m-2130 -25 c0 -5 -4 -9 -10 -9 -5 0 -10 7 -10 16
0 8 5 12 10 9 6 -3 10 -10 10 -16z m1415 10 c11 -16 1 -19 -13 -3 -7 8 -8 14
-3 14 5 0 13 -5 16 -11z m55 5 c0 -3 -6 -12 -14 -20 -13 -12 -15 -12 -13 6 1
17 27 31 27 14z m-1565 -14 c3 -5 1 -10 -4 -10 -6 0 -11 5 -11 10 0 6 2 10 4
10 3 0 8 -4 11 -10z m44 1 c7 -5 12 -13 10 -18 -2 -5 -12 -1 -21 9 -19 19 -13
24 11 9z m2115 -23 c-3 -5 -11 -5 -18 1 -7 6 -17 7 -21 3 -5 -4 -5 -2 -2 5 4
6 16 9 27 6 11 -3 17 -9 14 -15z m-1514 -34 c0 -3 -7 -1 -15 6 -8 7 -15 17
-15 22 0 5 7 3 15 -6 8 -8 15 -18 15 -22z m1410 16 c-7 -4 -10 -12 -6 -18 4
-6 -2 -8 -13 -5 -11 3 -22 11 -25 18 -3 9 2 11 16 7 14 -3 19 -1 14 6 -5 8 -1
10 9 5 12 -4 13 -8 5 -13z m-83 4 c-3 -3 -12 -4 -19 -1 -8 3 -5 6 6 6 11 1 17
-2 13 -5z m-1770 -10 c-3 -3 -12 -4 -19 -1 -8 3 -5 6 6 6 11 1 17 -2 13 -5z
m-82 -23 c-3 -6 -11 -11 -16 -11 -5 0 -4 6 3 14 14 16 24 13 13 -3z m1871 -8
c-10 -10 -19 5 -10 18 6 11 8 11 12 0 2 -7 1 -15 -2 -18z m-1905 -10 c13 -16
12 -17 -3 -4 -17 13 -22 21 -14 21 2 0 10 -8 17 -17z m516 -5 c-3 -8 -6 -5 -6
6 -1 11 2 17 5 13 3 -3 4 -12 1 -19z m815 -18 c-4 -3 -11 -9 -15 -15 -5 -6 -7
-3 -3 8 3 11 0 17 -10 17 -8 0 -12 4 -9 10 4 6 13 5 25 -2 11 -7 16 -15 12
-18z m-972 -21 c0 -8 -7 -6 -20 6 -11 10 -17 22 -14 26 6 11 34 -15 34 -32z
m1025 31 c3 -5 1 -10 -4 -10 -6 0 -11 5 -11 10 0 6 2 10 4 10 3 0 8 -4 11 -10z
m-1318 -6 c-3 -3 -12 -4 -19 -1 -8 3 -5 6 6 6 11 1 17 -2 13 -5z m1780 0 c-3
-3 -12 -4 -19 -1 -8 3 -5 6 6 6 11 1 17 -2 13 -5z m-1540 -36 c-3 -8 -6 -5 -6
6 -1 11 2 17 5 13 3 -3 4 -12 1 -19z m145 -42 c10 -11 16 -22 13 -24 -3 -3 -6
-3 -8 -1 -2 2 -15 19 -30 37 -15 19 -27 39 -27 45 0 6 8 0 17 -13 10 -14 25
-34 35 -44z m178 49 c11 -13 10 -14 -4 -9 -9 3 -16 10 -16 15 0 13 6 11 20 -6z
m1125 5 c3 -5 1 -10 -4 -10 -6 0 -11 5 -11 10 0 6 2 10 4 10 3 0 8 -4 11 -10z
m2846 -36 c28 -12 36 -20 32 -35 -3 -10 -10 -16 -15 -13 -22 14 -108 32 -113
24 -8 -12 25 -28 74 -36 22 -4 41 -9 41 -13 0 -3 -16 -38 -36 -77 l-36 -71
-50 10 c-39 8 -48 13 -42 26 19 44 34 121 34 173 l0 58 38 -16 c20 -8 53 -22
73 -30z m-4109 11 c-2 -14 -8 -25 -13 -25 -10 0 -12 34 -2 43 13 14 20 6 15
-18z m14 -82 c-9 -7 -11 -8 -6 -1 6 7 11 35 12 63 l2 50 3 -49 c3 -36 0 -53
-11 -63z m-1002 81 c9 -23 -2 -34 -33 -34 -36 0 -91 -19 -91 -31 0 -6 27 -7
66 -3 61 6 66 6 62 -12 -2 -14 -16 -22 -51 -28 -60 -12 -61 -28 -2 -25 52 3
58 -1 50 -33 -5 -21 -11 -23 -47 -20 -31 3 -39 1 -36 -9 3 -8 19 -14 36 -14
23 0 32 -4 32 -17 0 -23 -57 -68 -87 -68 -38 0 -83 51 -84 97 -3 83 2 118 24
157 20 36 27 42 67 47 77 10 88 9 94 -7z m425 -25 c25 -23 66 -60 91 -82 78
-69 180 -169 180 -177 0 -7 -77 -40 -95 -40 -19 0 -87 -22 -82 -26 2 -2 50 5
106 17 l103 22 24 -27 c18 -19 21 -28 12 -31 -17 -6 -251 -52 -310 -60 -26 -4
-45 -11 -42 -17 3 -5 13 -7 22 -4 10 3 46 8 82 11 36 4 102 15 146 26 103 24
136 24 158 0 17 -19 17 -20 -26 -31 -23 -6 -49 -13 -57 -16 -8 -3 -55 -14
-105 -24 -135 -30 -216 -52 -216 -60 0 -10 89 5 212 35 233 58 219 56 250 27
15 -14 26 -27 24 -29 -2 -2 -68 -17 -147 -32 -271 -54 -404 -82 -461 -97 -52
-13 -62 -13 -95 1 -32 14 -35 18 -21 26 26 15 93 144 128 249 38 113 60 231
60 318 0 34 3 62 6 62 4 0 28 -19 53 -41z m1854 28 c3 -8 2 -20 -3 -26 -5 -9
-7 -4 -7 13 0 29 2 32 10 13z m62 3 c-3 -5 -12 -10 -18 -10 -7 0 -6 4 3 10 19
12 23 12 15 0z m-1228 -23 c-2 -7 0 -21 6 -32 7 -15 7 -17 -2 -9 -16 14 -25
68 -11 59 6 -4 9 -12 7 -18z m43 -8 c0 -6 -4 -7 -10 -4 -5 3 -10 11 -10 16 0
6 5 7 10 4 6 -3 10 -11 10 -16z m620 7 c0 -11 -19 -15 -25 -6 -3 5 1 10 9 10
9 0 16 -2 16 -4z m426 -11 l29 -16 -38 7 c-32 5 -36 4 -31 -10 5 -12 2 -15
-10 -10 -16 6 -16 8 0 25 20 23 15 22 50 4z m-1429 -11 c-3 -3 -12 -4 -19 -1
-8 3 -5 6 6 6 11 1 17 -2 13 -5z m-47 -17 l35 2 -32 -11 c-34 -11 -63 -6 -63
12 0 6 5 8 12 4 7 -5 29 -7 48 -7z m251 -10 c-10 -9 -11 -8 -5 6 3 10 9 15 12
12 3 -3 0 -11 -7 -18z m724 13 c-3 -5 -11 -10 -16 -10 -6 0 -7 5 -4 10 3 6 11
10 16 10 6 0 7 -4 4 -10z m3244 -25 c8 -8 13 -17 10 -20 -8 -7 -119 28 -119
39 0 14 92 -2 109 -19z m-2949 5 c0 -5 -4 -10 -10 -10 -5 0 -10 5 -10 10 0 6
5 10 10 10 6 0 10 -4 10 -10z m-1086 -15 c11 -8 16 -15 10 -15 -5 0 -18 7 -28
15 -11 8 -16 15 -10 15 5 0 18 -7 28 -15z m177 -37 c-5 -18 -10 -25 -10 -16
-1 9 -9 19 -18 21 -14 4 -12 5 5 6 16 1 22 7 23 24 0 12 3 17 5 10 3 -6 1 -26
-5 -45z m1099 45 c-8 -3 -22 -11 -30 -17 -13 -10 -13 -9 -1 7 7 9 21 17 30 16
13 0 14 -1 1 -6z m-130 -13 c0 -5 -7 -10 -15 -10 -8 0 -15 5 -15 10 0 6 7 10
15 10 8 0 15 -4 15 -10z m-1310 -62 c0 -13 -5 -9 -31 19 l-24 26 27 -19 c15
-10 28 -22 28 -26z m300 10 c0 -12 -6 -9 -26 13 -19 22 -19 22 4 8 12 -8 22
-17 22 -21z m3888 19 c16 -1 15 -12 -4 -50 -47 -92 -97 -161 -176 -242 -48
-50 -94 -100 -103 -110 -19 -27 -19 -5 1 46 13 31 21 39 35 36 11 -3 22 -1 25
5 3 5 -3 12 -15 15 -23 6 -25 11 -12 32 6 9 21 11 52 7 41 -6 43 -6 25 9 -11
8 -31 15 -44 15 -14 0 -22 5 -19 13 2 7 22 12 50 12 45 0 68 19 27 21 -11 1
-27 2 -36 3 -10 1 -14 9 -12 24 3 23 19 26 71 12 21 -6 27 -4 27 9 0 9 -12 18
-27 22 -47 10 -54 14 -48 24 4 6 17 4 35 -5 16 -8 36 -15 45 -15 27 0 16 21
-21 36 -24 10 -34 20 -32 32 4 23 40 27 78 7 30 -15 50 -13 50 5 0 5 -18 15
-40 21 -56 17 -51 33 8 24 26 -4 53 -7 60 -8z m-3773 -6 c3 -5 1 -12 -5 -16
-5 -3 -10 1 -10 9 0 18 6 21 15 7z m32 -22 c-6 -10 -13 -15 -15 -9 -6 17 7 42
18 35 6 -4 5 -13 -3 -26z m433 27 c0 -3 -4 -8 -10 -11 -5 -3 -10 -1 -10 4 0 6
5 11 10 11 6 0 10 -2 10 -4z m430 -36 c-20 -13 -33 -13 -25 0 3 6 14 10 23 10
15 0 15 -2 2 -10z m-805 -19 c-3 -6 -11 -11 -16 -11 -5 0 -4 6 3 14 14 16 24
13 13 -3z m360 10 c-3 -5 3 -12 12 -14 15 -4 15 -5 2 -6 -9 0 -22 6 -29 14
-10 12 -9 15 4 15 10 0 15 -4 11 -9z m-524 -28 c-12 -20 -14 -14 -5 12 4 9 9
14 11 11 3 -2 0 -13 -6 -23z m834 -15 c5 -4 0 -6 -12 -6 -13 1 -19 7 -16 15 3
8 8 10 12 6 3 -4 10 -11 16 -15z m65 12 c0 -5 -2 -10 -4 -10 -3 0 -8 5 -11 10
-3 6 -1 10 4 10 6 0 11 -4 11 -10z m-26 -9 c3 -4 -4 -17 -17 -27 -22 -19 -22
-19 -4 2 9 11 14 24 10 27 -3 4 -4 7 0 7 3 0 8 -4 11 -9z m656 5 c0 -14 -114
-66 -235 -108 -202 -71 -256 -87 -385 -113 -63 -13 -124 -27 -135 -31 -19 -7
-19 -7 -2 13 13 15 40 24 100 33 82 11 165 33 287 75 36 12 108 35 160 50 52
15 118 41 145 56 47 27 65 34 65 25z m-1440 -15 c0 -19 -12 -41 -20 -36 -10 6
-1 45 11 45 5 0 9 -4 9 -9z m450 -6 c0 -8 7 -15 15 -15 8 0 15 -6 15 -14 0 -8
5 -16 10 -18 6 -2 1 -11 -10 -20 -19 -17 -20 -17 -20 0 0 9 -7 30 -15 46 -18
34 -18 36 -5 36 6 0 10 -7 10 -15z m-360 -5 c0 -5 -2 -10 -4 -10 -3 0 -8 5
-11 10 -3 6 -1 10 4 10 6 0 11 -4 11 -10z m288 -12 c-7 -13 -11 -26 -10 -30 1
-5 -2 -8 -8 -8 -14 0 -12 12 6 38 20 29 28 28 12 0z m312 8 c0 -3 -4 -8 -10
-11 -5 -3 -10 -1 -10 4 0 6 5 11 10 11 6 0 10 -2 10 -4z m3157 -20 c9 -8 -46
-112 -94 -178 -27 -38 -38 -46 -51 -38 -9 5 -39 12 -66 15 l-48 7 23 25 c22
22 29 24 78 18 42 -5 52 -4 49 7 -3 7 -15 14 -29 16 -48 6 -53 11 -34 32 13
15 31 20 67 20 37 0 48 4 48 16 0 13 -7 15 -40 9 -22 -4 -40 -4 -40 -1 0 4 10
21 22 39 20 32 24 33 65 27 24 -4 46 -10 50 -14z m-3948 -31 c0 -5 -6 -1 -14
9 -8 11 -15 24 -15 30 0 5 7 1 15 -10 8 -10 14 -23 14 -29z m141 41 c0 -9 -30
-14 -35 -6 -4 6 3 10 14 10 12 0 21 -2 21 -4z m-360 -16 c0 -5 -5 -10 -11 -10
-5 0 -7 5 -4 10 3 6 8 10 11 10 2 0 4 -4 4 -10z m961 -13 c-10 -9 -11 -8 -5 6
3 10 9 15 12 12 3 -3 0 -11 -7 -18z m-877 -22 c-5 -19 -9 -24 -18 -15 -8 8 -7
13 4 20 8 5 11 10 7 10 -5 0 -5 5 -2 11 11 17 16 3 9 -26z m92 15 c7 0 11 -6
8 -14 -3 -9 3 -17 15 -21 12 -3 19 -11 16 -16 -7 -11 -42 10 -49 31 -11 29
-14 40 -9 30 2 -5 11 -10 19 -10z m254 -6 c0 -20 -7 -17 -20 6 -9 16 -8 18 5
14 8 -4 15 -12 15 -20z m40 0 c0 -8 -4 -12 -10 -9 -5 3 -10 13 -10 21 0 8 5
12 10 9 6 -3 10 -13 10 -21z m298 -9 c-3 -3 -9 2 -12 12 -6 14 -5 15 5 6 7 -7
10 -15 7 -18z m82 9 c0 -8 -4 -12 -10 -9 -5 3 -10 10 -10 16 0 5 5 9 10 9 6 0
10 -7 10 -16z m-133 -16 c-3 -8 -6 -5 -6 6 -1 11 2 17 5 13 3 -3 4 -12 1 -19z
m-393 -13 c-4 -8 -8 -15 -10 -15 -2 0 -4 7 -4 15 0 8 4 15 10 15 5 0 7 -7 4
-15z m349 -17 c-3 -16 -9 -28 -15 -28 -5 0 -4 -9 2 -20 15 -28 5 -25 -14 5
-12 18 -13 24 -4 23 7 -2 13 4 13 12 1 16 15 43 20 38 2 -2 1 -15 -2 -30z m77
27 c0 -7 -51 -55 -57 -55 -8 0 42 59 50 59 4 1 7 -1 7 -4z m-345 -15 c3 -5 1
-10 -4 -10 -6 0 -11 5 -11 10 0 6 2 10 4 10 3 0 8 -4 11 -10z m105 -21 c0 -6
-4 -7 -10 -4 -5 3 -10 11 -10 16 0 6 5 7 10 4 6 -3 10 -11 10 -16z m249 -13
c-7 -14 -16 -26 -21 -26 -5 0 -1 13 8 30 21 35 30 33 13 -4z m-309 20 c0 -3
-4 -8 -10 -11 -5 -3 -10 -1 -10 4 0 6 5 11 10 11 6 0 10 -2 10 -4z m377 -8
c-2 -7 3 -21 12 -32 15 -18 15 -18 -8 -11 -20 6 -23 4 -18 -9 4 -10 3 -15 -2
-12 -7 4 -8 50 -2 74 1 1 6 2 12 2 6 0 9 -6 6 -12z m-641 -56 c-10 -10 -38 29
-32 45 6 14 10 12 22 -12 8 -15 12 -30 10 -33z m411 18 c-1 -22 -5 -40 -9 -40
-9 0 -10 26 -2 58 9 32 12 27 11 -18z m293 -10 c-25 -22 -49 -39 -54 -40 -6 0
8 16 30 35 21 19 44 39 49 44 6 5 12 7 15 4 2 -2 -16 -21 -40 -43z m-480 5 c0
-5 -5 -3 -10 5 -5 8 -10 20 -10 25 0 6 5 3 10 -5 5 -8 10 -19 10 -25z m460 25
c0 -5 -4 -10 -10 -10 -5 0 -10 5 -10 10 0 6 5 10 10 10 6 0 10 -4 10 -10z
m-340 -35 c0 -5 -5 -3 -10 5 -5 8 -10 20 -10 25 0 6 5 3 10 -5 5 -8 10 -19 10
-25z m264 11 c-6 -16 -24 -23 -24 -8 0 10 22 33 27 28 2 -2 1 -11 -3 -20z
m-510 -2 c3 -8 2 -12 -4 -9 -6 3 -10 10 -10 16 0 14 7 11 14 -7z m53 -6 c-3
-8 -6 -5 -6 6 -1 11 2 17 5 13 3 -3 4 -12 1 -19z m128 2 c3 -5 1 -10 -4 -10
-6 0 -11 5 -11 10 0 6 2 10 4 10 3 0 8 -4 11 -10z m-310 -11 c11 -16 1 -19
-13 -3 -7 8 -8 14 -3 14 5 0 13 -5 16 -11z m272 -11 c-3 -8 -6 -5 -6 6 -1 11
2 17 5 13 3 -3 4 -12 1 -19z m70 -3 c-15 -16 -19 -13 -11 9 3 9 10 13 15 10 5
-3 3 -11 -4 -19z m-352 -23 c-3 -3 -11 0 -18 7 -9 10 -8 11 6 5 10 -3 15 -9
12 -12z m120 -3 c-3 -4 -12 -6 -20 -3 -8 4 -13 10 -10 15 3 4 12 6 20 3 8 -4
13 -10 10 -15z m130 11 c3 -5 -1 -10 -9 -10 -9 0 -16 5 -16 10 0 6 4 10 9 10
6 0 13 -4 16 -10z m75 2 c0 -5 -7 -9 -15 -9 -8 0 -15 4 -15 9 0 4 7 8 15 8 8
0 15 -4 15 -8z m315 -2 c13 -6 15 -9 5 -9 -8 0 -22 4 -30 9 -18 12 -2 12 25 0z
m-152 -15 c-3 -9 -8 -14 -10 -11 -3 3 -2 9 2 15 9 16 15 13 8 -4z m60 -18
c-17 -22 -20 -22 -33 -9 -13 14 -12 15 3 9 11 -4 21 0 29 13 7 10 14 17 16 15
2 -2 -4 -15 -15 -28z m-483 13 c0 -5 -4 -10 -10 -10 -5 0 -10 5 -10 10 0 6 5
10 10 10 6 0 10 -4 10 -10z m390 0 c0 -5 -4 -10 -10 -10 -5 0 -10 5 -10 10 0
6 5 10 10 10 6 0 10 -4 10 -10z m120 -19 c-5 -11 -15 -23 -21 -27 -6 -3 -3 5
6 20 20 30 30 35 15 7z m90 9 c0 -5 -4 -10 -10 -10 -5 0 -10 5 -10 10 0 6 5
10 10 10 6 0 10 -4 10 -10z m-331 -44 c1 -6 -5 -1 -13 9 -8 11 -12 24 -8 29 5
9 20 -17 21 -38z m-179 30 c0 -3 -4 -8 -10 -11 -5 -3 -10 -1 -10 4 0 6 5 11
10 11 6 0 10 -2 10 -4z m276 -22 c-4 -9 -9 -15 -11 -12 -3 3 -3 13 1 22 4 9 9
15 11 12 3 -3 3 -13 -1 -22z m-159 -6 c-3 -8 -6 -5 -6 6 -1 11 2 17 5 13 3 -3
4 -12 1 -19z m3551 13 c53 -10 60 -17 41 -37 -14 -13 -19 -13 -45 1 -16 8 -37
15 -46 15 -24 0 -48 11 -48 21 0 11 41 11 98 0z m-3708 -26 c0 -2 -6 -5 -13
-8 -8 -3 -14 1 -14 8 0 7 6 11 14 8 7 -3 13 -6 13 -8z m400 -22 c0 -3 -7 -3
-15 1 -8 3 -15 0 -15 -6 0 -6 -3 -9 -6 -5 -11 10 6 26 21 20 8 -3 15 -7 15
-10z m-390 -8 c-14 -17 -40 -20 -40 -5 0 5 7 7 15 4 8 -4 15 -1 15 5 0 6 5 11
11 11 8 0 8 -5 -1 -15z m273 8 c-13 -2 -35 -2 -50 0 -16 2 -5 4 22 4 28 0 40
-2 28 -4z m3375 -9 c48 -16 50 -18 38 -36 -8 -11 -24 -26 -35 -35 -19 -13 -27
-12 -76 11 -61 28 -72 40 -22 24 65 -20 77 -21 77 -5 0 9 -15 20 -35 27 -38
12 -47 30 -16 30 10 0 42 -7 69 -16z m-3838 -7 c0 -9 -33 -22 -92 -36 -153
-37 -350 -79 -408 -86 -30 -4 -60 -11 -67 -17 -12 -10 -63 -1 -63 12 0 4 17
11 38 14 129 22 217 39 287 56 44 10 119 26 168 35 48 8 97 20 110 25 12 5 23
9 25 9 1 1 2 -5 2 -12z m590 -7 c0 -5 -5 -10 -11 -10 -5 0 -7 5 -4 10 3 6 8
10 11 10 2 0 4 -4 4 -10z"/>
<path d="M7570 3821 c0 -12 16 -23 58 -37 42 -15 40 -5 -4 24 -38 24 -54 28
-54 13z"/>
<path d="M7550 3735 c0 -10 29 -30 75 -52 87 -41 113 -39 30 2 -30 16 -62 36
-71 47 -21 22 -34 23 -34 3z"/>
<path d="M7505 3650 c-3 -5 7 -12 22 -16 15 -4 33 -11 40 -16 7 -6 17 -8 23
-6 6 2 -9 13 -34 25 -26 13 -48 18 -51 13z"/>
<path d="M7500 3557 c0 -7 35 -25 78 -41 42 -16 103 -40 134 -53 64 -26 68
-27 68 -15 0 11 -37 28 -124 58 -38 13 -84 33 -103 44 -40 23 -53 25 -53 7z"/>
<path d="M8080 3520 c0 -5 3 -10 8 -10 4 0 28 -7 55 -15 60 -18 61 -10 1 15
-52 23 -64 24 -64 10z"/>
<path d="M7430 3483 c0 -12 140 -64 420 -156 288 -95 341 -109 265 -72 -27 14
-56 25 -63 25 -7 0 -20 4 -30 9 -31 16 -244 90 -367 127 -66 20 -138 45 -159
55 -42 20 -66 24 -66 12z"/>
<path d="M8030 3462 c0 -5 26 -19 58 -30 81 -29 102 -35 102 -25 0 4 -28 18
-62 30 -35 12 -71 25 -80 28 -10 4 -18 3 -18 -3z"/>
<path d="M7396 3421 c27 -25 633 -246 732 -266 53 -11 36 9 -26 28 -153 49
-533 184 -623 223 -57 24 -102 32 -83 15z"/>
<path d="M7916 3410 c12 -12 217 -85 264 -94 61 -12 8 13 -129 61 -130 45
-152 50 -135 33z"/>
<path d="M1307 3576 c-44 -16 -77 -43 -77 -63 0 -7 -12 -13 -27 -14 -61 -1
-169 -66 -222 -131 -33 -41 -40 -121 -15 -174 20 -42 89 -114 151 -157 49 -34
141 -67 185 -67 70 1 192 59 223 106 14 22 22 25 63 22 51 -3 51 -4 28 -60
-16 -37 -16 -38 14 -71 17 -20 43 -37 62 -41 50 -10 123 13 157 48 29 31 48
91 32 101 -18 10 -71 -30 -82 -62 -9 -28 -16 -33 -41 -33 -30 0 -88 46 -88 70
0 6 18 28 40 47 63 57 46 104 -25 70 -22 -10 -46 -14 -69 -10 -34 5 -36 8 -36
44 0 44 -6 46 -47 22 -18 -10 -35 -33 -47 -62 -29 -78 -40 -94 -76 -114 -47
-26 -119 -18 -203 22 -81 39 -109 61 -149 119 -27 39 -32 56 -33 104 0 52 3
60 35 93 19 20 55 50 80 66 46 31 65 33 156 14 43 -9 52 10 14 30 -57 30 -32
62 63 81 62 12 62 12 17 13 -25 0 -62 -6 -83 -13z"/>
<path d="M1287 3389 c-14 -8 -17 -21 -16 -60 3 -53 -15 -83 -59 -100 -13 -5
-20 -14 -16 -20 7 -12 82 -7 149 10 32 8 42 7 51 -4 16 -22 39 -18 51 8 21 48
-9 59 -86 32 -46 -16 -49 -11 -21 42 34 66 1 124 -53 92z"/>
<path d="M1630 3391 c-20 -6 -26 -14 -28 -45 -3 -37 -3 -37 30 -34 29 3 33 7
36 37 4 40 -5 50 -38 42z"/>
<path d="M6961 3261 c-19 -34 -61 -204 -61 -244 0 -48 21 -45 33 4 23 95 52
186 65 201 7 9 12 25 10 35 -5 25 -35 28 -47 4z"/>
<path d="M7221 3135 c-19 -22 -55 -46 -89 -60 -70 -28 -118 -81 -108 -119 9
-38 63 -94 96 -101 35 -8 34 -1 16 -92 -17 -93 -42 -127 -102 -142 -65 -16
-75 -4 -76 85 0 38 3 88 7 111 6 35 4 44 -10 49 -34 13 -122 -100 -193 -249
-46 -94 -48 -104 -30 -142 13 -29 38 -33 38 -6 0 41 100 94 145 77 49 -18 -32
-176 -90 -176 -10 0 -15 -11 -15 -32 0 -84 -43 -149 -107 -163 -25 -5 -46 0
-89 22 -77 39 -85 50 -74 98 22 95 3 127 -21 35 -7 -28 -15 -50 -18 -50 -3 0
-26 14 -51 30 -29 19 -46 26 -49 18 -4 -12 24 -39 68 -68 24 -16 24 -16 7 -72
-25 -88 -15 -201 20 -215 39 -15 103 75 104 145 l0 33 43 -26 c64 -37 111 -34
152 10 40 42 59 95 52 141 -5 31 -3 35 27 48 48 20 81 70 101 154 l17 72 38 0
c90 0 132 41 143 142 4 31 11 68 17 83 9 24 12 25 64 19 48 -6 55 -4 65 15 13
23 9 33 -22 69 -15 16 -32 22 -59 22 -33 0 -39 3 -35 18 3 9 11 41 17 69 7 29
25 69 41 90 32 40 36 86 8 91 -9 2 -30 -13 -48 -33z m-45 -187 l-3 -63 -39 3
c-44 4 -70 23 -61 46 6 16 84 76 98 76 4 0 6 -28 5 -62z m-247 -310 c1 -26 -1
-27 -44 -26 -25 0 -45 2 -45 4 0 3 42 82 55 104 6 10 12 6 21 -21 7 -18 13
-46 13 -61z m-370 -452 c19 -20 20 -24 7 -29 -9 -4 -16 -13 -16 -22 0 -9 -8
-30 -17 -48 l-17 -32 -7 39 c-6 38 7 116 20 116 4 0 18 -11 30 -24z"/>
<path d="M7520 3034 c0 -51 34 -134 55 -134 22 0 56 51 53 79 -4 34 -35 40
-47 10 -8 -23 -8 -23 -18 -4 -6 11 -13 37 -17 58 -10 52 -26 46 -26 -9z"/>
<path d="M913 3059 c-13 -4 -23 -13 -23 -18 0 -14 30 -41 46 -41 16 0 19 16 4
25 -24 15 -8 26 28 19 24 -4 34 -3 27 3 -16 16 -58 22 -82 12z"/>
<path d="M6725 3000 c-35 -14 -57 -48 -63 -96 -4 -41 -3 -46 14 -42 10 2 27
20 37 41 9 20 24 37 32 37 8 0 18 0 22 0 4 0 6 -18 4 -40 -3 -51 15 -53 23 -2
5 34 2 90 -6 97 -11 9 -46 12 -63 5z"/>
<path d="M7374 2996 c-15 -11 -20 -23 -16 -45 5 -34 9 -36 46 -21 26 9 32 31
20 64 -8 20 -23 20 -50 2z"/>
<path d="M1497 2943 c-4 -3 -7 -19 -7 -34 0 -31 26 -45 60 -34 17 5 21 1 26
-24 9 -43 28 -57 60 -43 20 10 23 16 18 39 -10 41 -12 43 -44 37 -27 -6 -29
-4 -35 30 -7 32 -10 36 -39 36 -18 0 -36 -3 -39 -7z"/>
<path d="M2056 2929 c-14 -11 -26 -26 -26 -34 0 -7 -7 -18 -15 -25 -9 -7 -37
-45 -63 -84 -110 -166 -283 -374 -323 -388 -8 -3 -11 -9 -7 -13 14 -14 96 36
150 93 73 76 205 240 220 274 13 28 38 46 38 28 0 -6 4 -10 8 -10 9 0 31 51
42 100 5 19 12 45 15 58 9 28 -4 28 -39 1z"/>
<path d="M1305 2902 c-42 -5 -56 -19 -49 -51 10 -38 23 -51 53 -51 43 0 55 13
48 56 -8 45 -14 51 -52 46z"/>
<path d="M1835 2903 c-31 -7 -38 -19 -26 -41 9 -17 7 -21 -12 -27 -18 -6 -14
-9 28 -20 78 -20 88 -18 107 20 10 19 15 41 12 49 -9 22 -58 31 -109 19z m62
-38 c3 -9 3 -19 -1 -22 -8 -9 -37 18 -30 28 8 14 24 11 31 -6z"/>
<path d="M975 2873 c73 -115 343 -283 454 -283 26 0 56 6 66 14 16 11 26 10
71 -11 54 -24 101 -25 147 -1 24 12 57 67 57 96 0 45 -57 15 -75 -39 -10 -30
-16 -34 -46 -34 -40 0 -59 28 -59 93 0 37 -3 42 -23 42 -31 0 -52 -24 -68 -79
-7 -23 -19 -46 -27 -49 -28 -10 -128 34 -252 111 -69 43 -136 85 -150 92 -14
8 -40 27 -58 44 -41 38 -60 40 -37 4z"/>
<path d="M1391 2831 c-11 -7 -12 -17 -5 -43 8 -27 15 -34 41 -36 37 -4 49 20
34 62 -11 27 -42 35 -70 17z"/>
<path d="M7393 2764 c-25 -11 -13 -52 23 -84 l36 -31 34 35 c38 40 41 51 17
64 -23 13 -95 22 -110 16z m67 -54 c0 -5 -4 -10 -9 -10 -6 0 -13 5 -16 10 -3
6 1 10 9 10 9 0 16 -4 16 -10z"/>
<path d="M6532 2736 c-18 -39 -54 -222 -50 -253 5 -35 11 -19 27 66 7 34 22
92 34 127 14 44 18 67 11 74 -7 7 -14 3 -22 -14z"/>
<path d="M2110 2712 c0 -6 26 -13 58 -17 31 -3 86 -12 122 -20 80 -18 90 -19
90 -1 0 16 -81 34 -192 43 -53 4 -78 2 -78 -5z"/>
<path d="M7445 2593 c-3 -27 -19 -90 -36 -142 -16 -51 -29 -101 -28 -110 0
-13 1 -13 6 -1 3 8 17 40 31 70 30 66 52 143 52 187 0 51 -18 48 -25 -4z"/>
<path d="M2043 2603 c-7 -2 -13 -18 -13 -34 0 -21 5 -29 18 -29 28 0 44 16 40
41 -3 24 -21 32 -45 22z"/>
<path d="M2496 2569 c-14 -17 -23 -35 -20 -40 3 -6 -5 -27 -18 -47 -13 -20
-41 -72 -62 -114 l-37 -78 -49 0 c-36 0 -66 9 -116 35 -71 37 -93 41 -125 25
-27 -15 -24 -23 15 -44 18 -10 60 -45 92 -78 l59 -60 -63 6 c-100 9 -218 70
-248 127 -8 16 -14 51 -14 79 l0 51 -29 -17 c-30 -18 -41 -39 -41 -84 0 -14
-9 -40 -20 -57 -16 -26 -26 -33 -52 -33 -38 0 -251 97 -348 158 -173 109 -281
165 -225 117 17 -15 58 -52 93 -83 66 -60 180 -141 197 -142 6 0 45 -18 88
-39 43 -22 100 -44 126 -51 46 -11 51 -10 100 19 29 17 55 31 60 31 4 0 17
-11 29 -25 40 -46 148 -91 252 -105 40 -5 97 -23 150 -48 47 -21 90 -41 95
-43 28 -12 85 -52 85 -61 0 -20 -71 -127 -102 -153 -17 -14 -28 -29 -24 -32 9
-10 102 58 120 87 8 15 38 51 66 81 28 30 46 57 41 62 -13 13 112 249 137 258
12 5 23 18 26 31 23 128 26 152 19 159 -14 14 -51 -18 -58 -51 -3 -16 -14 -39
-24 -52 -10 -13 -47 -85 -81 -161 -35 -76 -67 -140 -72 -143 -12 -8 -106 57
-175 120 -55 50 -64 66 -37 66 9 0 40 15 70 32 46 28 59 43 90 105 19 40 41
71 47 70 6 -1 14 20 18 48 4 28 10 62 13 78 7 37 -15 36 -48 -4z"/>
<path d="M1382 2519 c2 -6 29 -19 61 -29 31 -10 73 -27 92 -39 35 -20 55 -21
55 -1 0 5 -28 22 -62 39 -69 32 -153 50 -146 30z"/>
<path d="M2118 2495 c-17 -17 -6 -21 60 -23 37 -1 91 -7 121 -13 59 -12 90 0
53 20 -25 13 -224 27 -234 16z"/>
<path d="M7231 2428 c-37 -114 -71 -262 -70 -303 l1 -40 9 43 c4 24 29 106 54
182 25 76 45 148 45 159 0 40 -19 20 -39 -41z"/>
<path d="M6273 2459 c-33 -12 -33 -69 0 -69 29 0 47 18 47 46 0 26 -17 34 -47
23z"/>
<path d="M6213 2350 c-17 -7 -23 -18 -23 -40 0 -29 2 -30 35 -28 28 2 37 7 41
25 12 47 -7 62 -53 43z"/>
<path d="M7023 2339 c-7 -7 -8 -21 -3 -41 8 -27 6 -30 -21 -40 -26 -9 -30 -14
-24 -37 10 -40 21 -46 49 -27 21 13 24 22 20 45 -5 24 -2 29 19 35 25 6 36 27
29 59 -4 19 -51 24 -69 6z"/>
<path d="M5985 2268 c4 -18 31 -59 59 -91 99 -114 159 -182 191 -217 42 -46
106 -152 131 -215 l19 -50 3 39 c3 39 -11 88 -34 116 -6 8 -26 42 -44 74 -30
56 -89 133 -170 219 -27 29 -32 40 -21 46 19 12 11 21 -59 69 -74 51 -84 52
-75 10z"/>
<path d="M2870 2262 c-62 -6 -58 -22 6 -22 32 -1 91 -7 129 -14 70 -14 112 -6
64 12 -34 13 -157 28 -199 24z"/>
<path d="M5850 2201 c0 -24 24 -68 63 -115 23 -28 47 -58 54 -66 6 -8 36 -44
65 -80 87 -105 158 -217 158 -248 -1 -42 -57 -82 -115 -82 -41 0 -126 19 -139
31 -11 10 34 81 80 127 38 37 46 82 16 82 -37 0 -224 -82 -306 -135 -52 -33
-57 -40 -56 -82 0 -5 24 -6 54 -5 36 3 64 -2 85 -13 l31 -16 -30 -44 c-41 -60
-83 -88 -119 -80 -48 10 -110 89 -159 200 -9 22 -42 98 -72 169 -31 71 -61
131 -67 133 -16 6 -23 -49 -9 -72 31 -49 89 -195 97 -248 8 -50 6 -69 -13
-129 -16 -50 -30 -75 -48 -86 -14 -9 -51 -36 -82 -59 -64 -49 -101 -54 -142
-22 -35 28 -40 38 -87 191 -36 120 -124 328 -138 328 -17 0 -6 -61 21 -119 47
-102 78 -188 103 -287 29 -114 57 -169 98 -194 56 -35 91 -26 164 41 51 47 70
48 108 9 31 -33 69 -39 79 -14 3 9 6 33 6 54 0 38 -7 46 -68 85 -2 2 14 53 38
119 5 16 13 7 43 -46 49 -87 95 -128 146 -128 23 0 47 7 58 18 30 25 93 107
93 119 0 6 7 16 15 23 11 9 26 8 69 -4 79 -23 177 -21 209 4 14 11 32 20 41
20 22 0 34 56 26 126 -9 70 -54 147 -184 315 -44 57 -72 100 -62 96 13 -5 17
-3 14 11 -2 9 -28 32 -58 49 -55 33 -80 41 -80 24z m60 -467 c0 -12 -35 -64
-43 -64 -14 0 -47 20 -47 29 0 5 17 16 38 24 41 18 52 20 52 11z"/>
<path d="M2822 2124 c-27 -19 -28 -45 -3 -68 14 -13 24 -14 45 -7 30 12 33 36
10 69 -18 26 -23 27 -52 6z"/>
<path d="M5661 2116 c-12 -13 -24 -40 -28 -60 -5 -32 -3 -38 16 -43 11 -3 21
-7 21 -10 0 -2 -15 -27 -33 -56 -50 -79 -53 -84 -28 -62 13 11 39 42 59 70 19
27 45 58 56 68 20 17 20 18 2 31 -10 8 -15 19 -12 24 8 13 -10 62 -22 62 -5 0
-18 -11 -31 -24z"/>
<path d="M1846 2091 c-4 -5 2 -14 11 -20 15 -8 11 -10 -20 -11 -48 0 -107 -24
-107 -44 0 -21 32 -36 93 -43 58 -6 57 6 -1 22 -50 14 -43 29 15 33 55 4 50 2
55 26 3 21 -36 53 -46 37z"/>
<path d="M3196 2048 c-22 -31 -20 -51 9 -76 28 -25 33 -66 10 -96 -8 -11 -15
-26 -15 -33 0 -30 37 -9 103 58 65 67 71 71 84 54 20 -28 38 -5 26 32 -13 39
-36 40 -64 3 -13 -17 -38 -47 -54 -66 l-30 -35 -1 58 c-1 56 -24 123 -44 123
-5 0 -16 -10 -24 -22z"/>
<path d="M3528 2022 c-10 -19 -27 -85 -38 -149 -27 -153 -44 -184 -117 -218
-32 -15 -69 -37 -83 -50 -25 -22 -55 -29 -182 -42 -52 -5 -59 -3 -83 21 -30
30 -29 45 6 151 35 105 39 119 35 122 -2 2 -23 -9 -47 -26 -70 -48 -143 -40
-169 18 l-12 26 -24 -28 c-15 -18 -24 -41 -24 -63 0 -69 -21 -125 -54 -146
-27 -17 -43 -19 -136 -14 -122 6 -184 23 -260 68 -83 50 -121 121 -106 201 3
18 26 56 52 85 26 29 44 55 41 58 -11 12 -110 -92 -134 -140 -21 -42 -24 -58
-18 -100 7 -57 34 -106 70 -130 115 -75 194 -98 345 -100 96 -1 121 2 143 17
27 18 71 79 94 130 11 25 27 32 73 29 7 0 25 5 40 13 14 7 35 16 48 19 18 6
22 4 22 -16 0 -13 -9 -42 -20 -63 -34 -66 -43 -113 -29 -147 16 -40 46 -49
134 -41 85 7 105 -2 105 -49 0 -40 25 -85 52 -94 16 -5 27 0 45 20 26 30 29
71 10 126 -17 47 4 84 58 106 22 8 50 25 63 37 27 25 27 25 2 -92 -11 -52 -20
-109 -20 -128 0 -41 22 -86 52 -107 28 -20 95 -20 141 -1 49 20 54 19 50 -12
-3 -19 3 -36 18 -52 19 -21 28 -23 72 -18 27 4 58 14 68 23 21 19 21 19 38
-13 16 -31 80 -32 106 -3 23 26 31 25 66 -5 16 -13 46 -29 66 -34 33 -9 45 -6
120 29 45 22 87 40 92 40 5 0 20 -19 33 -42 30 -54 48 -65 84 -49 34 14 74 68
74 100 0 32 -46 71 -85 71 -18 0 -37 6 -43 13 -13 17 -23 93 -27 215 -4 112
-1 132 21 132 18 0 18 10 0 57 -8 21 -20 62 -26 91 -7 28 -16 52 -20 52 -24 0
-30 -76 -26 -291 3 -123 8 -238 11 -255 6 -28 4 -33 -22 -43 -15 -7 -40 -19
-56 -27 -58 -32 -147 -12 -165 37 -7 19 -9 19 -40 -10 -56 -54 -119 -55 -108
-1 3 17 3 30 1 30 -3 0 -27 -13 -53 -30 -51 -31 -90 -37 -123 -20 -14 8 -19
21 -19 54 0 23 -2 45 -5 48 -3 3 -25 -4 -48 -16 -94 -47 -179 -18 -190 67 -5
40 18 202 47 332 34 148 37 173 34 215 l-3 45 -17 -33z m886 -745 c10 -7 17
-22 15 -32 -4 -18 -6 -18 -27 5 -34 37 -26 55 12 27z"/>
<path d="M1998 2004 c-13 -13 -14 -22 -6 -40 12 -26 24 -29 63 -14 25 9 25 11
10 40 -17 33 -42 38 -67 14z"/>
<path d="M5165 1922 c-43 -36 -71 -67 -73 -81 -3 -21 0 -20 35 15 21 22 58 52
81 67 23 16 42 35 42 43 0 22 -10 17 -85 -44z"/>
<path d="M6742 1890 c3 -75 8 -94 25 -111 26 -27 50 -16 80 39 21 35 21 41 7
58 -11 14 -17 16 -21 6 -3 -7 -16 -25 -28 -40 l-23 -27 -11 28 c-6 16 -11 53
-11 83 0 33 -4 54 -11 54 -8 0 -10 -28 -7 -90z"/>
<path d="M3773 1925 c-24 -21 -26 -26 -13 -35 8 -5 39 -10 68 -10 66 0 67 -15
2 -43 -56 -23 -64 -37 -22 -37 58 1 152 66 152 107 0 26 -39 43 -98 43 -51 0
-66 -4 -89 -25z"/>
<path d="M4486 1904 c-4 -14 0 -71 8 -127 48 -320 58 -414 54 -498 -2 -49 -3
-89 -1 -89 2 0 14 21 26 48 17 37 21 64 19 132 -1 73 -19 231 -38 338 -6 28
-4 31 11 26 15 -6 17 -3 12 22 -5 30 -33 113 -50 152 -14 30 -33 28 -41 -4z"/>
<path d="M2605 1834 c-55 -17 -91 -45 -83 -66 3 -7 18 -20 32 -28 24 -12 29
-12 43 3 16 16 16 18 -2 31 -19 14 -17 16 33 38 28 12 52 26 52 30 0 11 -17 9
-75 -8z"/>
<path d="M4761 1749 c-12 -19 -21 -38 -22 -44 0 -5 -2 -20 -3 -32 -3 -23 4
-27 34 -23 22 2 43 26 36 39 -5 8 -13 8 -26 1 -30 -16 -34 6 -10 46 12 19 20
38 17 41 -3 3 -15 -10 -26 -28z"/>
<path d="M5150 1743 c0 -10 19 -36 41 -60 44 -44 64 -107 48 -152 -6 -15 -4
-21 5 -21 37 0 41 109 6 164 -45 72 -100 110 -100 69z"/>
<path d="M6456 1648 c-38 -75 -33 -98 18 -78 31 11 34 37 6 42 l-20 3 20 37
c23 43 24 48 11 48 -5 0 -21 -23 -35 -52z"/>
<path d="M4058 1646 c-50 -34 -108 -100 -108 -122 0 -29 94 -29 112 -1 14 22
8 27 -28 27 -47 0 -42 14 27 69 82 67 80 84 -3 27z"/>
<path d="M3665 1635 c-14 -13 -25 -28 -25 -34 0 -12 56 -25 70 -16 17 10 11
25 -10 25 -30 0 -24 27 8 38 25 10 25 10 4 11 -13 1 -34 -10 -47 -24z"/>
<path d="M4871 1486 c-55 -41 -110 -129 -98 -159 3 -7 23 -19 46 -26 23 -6 41
-15 41 -19 0 -4 -11 -24 -25 -44 -45 -67 -26 -63 49 10 41 40 79 72 84 72 20
0 72 52 72 71 0 25 -14 24 -51 -3 -24 -18 -43 -23 -86 -22 -72 2 -83 14 -43
48 35 29 51 32 79 14 41 -25 73 14 46 56 -23 34 -69 35 -114 2z"/>
<path d="M2730 1480 l-25 -19 21 -28 c25 -33 43 -38 69 -19 19 14 19 14 0 50
-22 41 -30 43 -65 16z"/>
<path d="M2852 1464 c-29 -20 -28 -38 4 -63 47 -37 84 6 48 57 -18 26 -23 27
-52 6z"/>
<path d="M5951 1433 c-14 -49 -14 -83 0 -83 8 0 9 -13 5 -39 -4 -28 -2 -42 9
-51 25 -21 107 56 160 150 5 8 -22 -15 -60 -52 -38 -38 -73 -68 -78 -68 -13 0
0 46 29 103 31 63 30 80 -4 40 l-27 -31 0 30 c0 45 -22 46 -34 1z"/>
<path d="M5713 1253 c-35 -45 -44 -66 -34 -82 5 -8 16 -7 39 5 37 18 41 31 10
36 -21 3 -21 3 5 34 29 34 33 44 18 44 -5 0 -22 -17 -38 -37z"/>
<path d="M5399 1223 c-1 -10 -1 -22 0 -27 1 -6 -2 -19 -7 -30 -5 -12 -14 -32
-19 -45 -6 -16 -36 -36 -103 -67 -104 -48 -96 -58 15 -19 47 17 81 36 103 60
18 19 42 35 52 35 57 0 64 29 20 78 -33 35 -59 42 -61 15z m31 -43 c0 -5 -4
-10 -10 -10 -5 0 -10 5 -10 10 0 6 5 10 10 10 6 0 10 -4 10 -10z"/>
<path d="M3338 1211 c-111 -10 -85 -17 67 -18 80 -1 145 2 145 7 0 19 -73 23
-212 11z"/>
<path d="M4957 1105 c-91 -80 -103 -92 -92 -103 4 -4 17 4 29 18 12 14 51 49
87 79 35 30 68 58 72 62 5 4 4 9 -1 13 -5 3 -48 -28 -95 -69z"/>
<path d="M4567 1055 c-43 -42 -71 -91 -58 -100 10 -6 68 2 83 11 4 3 8 12 8
21 0 11 -7 14 -25 11 -38 -8 -38 4 1 47 19 21 34 40 34 42 0 8 -9 1 -43 -32z"/>
<path d="M3680 1072 c0 -14 21 -20 128 -36 59 -9 115 -11 144 -7 36 6 48 4 52
-6 5 -13 43 -12 65 1 5 4 12 2 16 -4 10 -16 40 -12 69 11 32 25 24 47 -9 25
-21 -14 -25 -14 -36 0 -8 10 -21 13 -37 9 -15 -4 -28 -1 -33 6 -5 9 -20 9 -67
0 -56 -11 -264 -7 -284 6 -5 2 -8 0 -8 -5z"/>
<path d="M2570 2860 c0 -12 94 -12 130 0 17 6 2 8 -52 9 -46 1 -78 -3 -78 -9z"/>
<path d="M2647 2801 c-21 -3 -38 -10 -37 -16 0 -12 5 -12 48 -1 17 4 32 12 32
17 0 5 -1 8 -2 8 -2 -1 -20 -5 -41 -8z"/>
<path d="M2647 2723 c-17 -16 -4 -23 31 -17 61 11 73 23 21 24 -25 0 -49 -3
-52 -7z"/>
<path d="M7987 2844 c-12 -12 4 -24 34 -24 34 0 39 15 7 24 -29 7 -33 7 -41 0z"/>
<path d="M1711 7161 c-8 -6 -9 -11 -3 -15 6 -3 14 -1 17 5 9 14 2 20 -14 10z"/>
<path d="M1824 7085 c-16 -12 -17 -14 -3 -15 9 0 19 7 23 15 7 19 5 19 -20 0z"/>
<path d="M3327 7063 c-4 -3 -7 -22 -8 -42 0 -20 -4 -45 -8 -56 -20 -52 17 -68
102 -44 31 8 37 14 37 37 -1 37 -20 69 -56 93 -30 19 -55 24 -67 12z m47 -69
c23 -9 20 -24 -4 -24 -11 0 -20 7 -20 15 0 17 2 18 24 9z"/>
<path d="M2965 6990 c-11 -19 15 -48 49 -54 19 -4 45 -16 58 -26 l23 -20 -35
-30 c-19 -17 -40 -30 -47 -30 -8 0 -13 -12 -13 -30 0 -39 19 -39 77 1 44 31
45 32 40 78 -7 65 -13 75 -56 99 -41 23 -86 29 -96 12z"/>
<path d="M4837 6976 c-8 -21 5 -46 77 -147 29 -42 57 -90 61 -107 8 -37 25
-43 25 -8 0 55 -51 153 -128 245 -24 29 -30 31 -35 17z"/>
<path d="M2620 6961 c-16 -32 -12 -41 20 -41 25 0 30 4 30 24 0 13 -7 27 -16
30 -22 8 -22 8 -34 -13z"/>
<path d="M4678 6935 c-16 -17 13 -66 79 -134 42 -42 79 -86 84 -98 5 -13 14
-23 20 -23 6 0 8 7 5 16 -3 9 -6 24 -6 34 0 10 -20 45 -45 78 -25 33 -45 68
-45 78 0 11 -4 24 -8 30 -8 12 -75 27 -84 19z"/>
<path d="M3314 6883 c-17 -52 -42 -101 -68 -130 -34 -40 -23 -42 20 -5 33 28
57 69 68 114 7 30 -11 49 -20 21z"/>
<path d="M2270 6856 c0 -13 16 -45 37 -71 20 -26 56 -87 79 -136 66 -132 118
-160 187 -99 20 17 46 30 61 30 47 0 118 44 149 92 11 18 29 29 54 34 21 4 43
14 49 22 12 16 7 90 -7 130 -12 31 -31 18 -23 -16 17 -77 17 -82 -3 -82 -10 0
-25 6 -32 13 -10 10 -14 8 -22 -6 -39 -68 -106 -114 -173 -119 -29 -2 -41 -8
-52 -29 -7 -15 -27 -31 -43 -37 -50 -18 -83 12 -141 129 -72 147 -120 204
-120 145z"/>
<path d="M2426 6834 c-9 -23 11 -44 41 -44 21 0 24 4 21 28 -2 21 -9 28 -29
30 -18 2 -29 -3 -33 -14z"/>
<path d="M4356 6815 c-15 -14 -51 -43 -80 -64 -54 -40 -116 -105 -116 -121 0
-19 27 -10 37 13 11 24 113 117 129 117 13 1 74 58 74 70 0 17 -16 11 -44 -15z"/>
<path d="M4656 6673 c-15 -15 -29 -36 -32 -47 -9 -26 9 -40 35 -26 43 22 35
-17 -18 -87 -27 -37 -66 -97 -87 -134 -20 -37 -47 -73 -61 -80 -23 -12 -27
-11 -44 10 -11 13 -17 31 -15 40 3 9 8 30 11 46 l6 30 -16 -34 c-34 -75 -7
-161 48 -147 29 7 33 12 115 137 142 214 130 203 187 183 17 -7 75 34 87 61
18 40 -4 56 -36 26 -35 -33 -79 -26 -86 14 -4 25 -10 31 -37 33 -24 2 -37 -4
-57 -25z"/>
<path d="M2964 6656 c-4 -19 -14 -26 -37 -28 -24 -2 -32 -8 -32 -23 0 -14 8
-21 27 -23 22 -3 29 2 34 22 5 20 12 26 35 26 24 0 29 4 29 25 0 36 -47 36
-56 1z"/>
<path d="M3833 6640 c-5 -20 -30 -33 -54 -28 -9 2 -15 -8 -17 -24 -3 -22 1
-28 17 -28 33 0 51 11 51 31 0 14 7 19 25 19 20 0 25 5 25 25 0 31 -39 36 -47
5z"/>
<path d="M4435 6610 c-3 -11 1 -30 10 -44 15 -23 15 -25 -4 -35 -30 -17 -51
-13 -60 10 -7 21 -8 21 -22 4 -87 -108 -178 -162 -251 -150 -29 5 -52 21 -93
62 -30 31 -57 64 -60 74 -4 11 -11 19 -16 19 -14 0 -11 -29 7 -59 15 -26 14
-29 -14 -76 -45 -74 -46 -115 -4 -115 32 0 51 13 76 53 l17 28 26 -21 c19 -14
41 -20 80 -20 65 0 108 21 183 88 46 41 58 48 76 40 14 -7 31 -5 57 5 29 13
37 22 42 51 11 57 -34 135 -50 86z m-456 -216 c-14 -26 -35 -41 -45 -31 -3 3
5 21 18 41 27 41 50 33 27 -10z"/>
<path d="M3560 6495 c0 -24 5 -35 18 -39 10 -3 25 -18 35 -33 9 -16 31 -44 48
-63 48 -54 82 -108 74 -120 -26 -41 -112 -24 -137 27 -20 43 -58 43 -97 -2
-43 -49 -42 -82 3 -66 62 23 47 -30 -28 -96 -69 -61 -210 -95 -244 -61 -16 16
-32 -5 -32 -40 0 -28 -47 -54 -59 -33 -6 9 -16 3 -36 -21 -35 -43 -93 -78
-127 -78 -41 0 -84 44 -127 130 -41 83 -87 150 -103 150 -17 0 0 -47 40 -109
21 -32 51 -83 66 -114 16 -31 41 -67 55 -81 49 -47 136 -32 195 33 9 10 34 22
54 26 52 10 70 22 74 47 3 20 8 23 44 20 59 -5 110 12 180 57 53 34 113 102
126 143 2 6 14 5 31 -1 43 -16 92 -13 108 7 57 68 46 131 -39 222 -12 13 -22
33 -22 44 0 32 -13 46 -59 67 l-41 18 0 -34z"/>
<path d="M4487 6453 c-4 -3 -7 -15 -7 -25 0 -12 7 -18 24 -18 24 0 41 23 30
41 -6 10 -38 12 -47 2z"/>
<path d="M3397 6393 c-4 -3 -7 -15 -7 -25 0 -13 7 -18 25 -18 20 0 25 5 25 25
0 18 -5 25 -18 25 -10 0 -22 -3 -25 -7z"/>
<path d="M4267 6311 c-3 -14 -11 -17 -31 -14 -30 6 -56 -11 -56 -38 0 -27 55
-26 70 1 7 13 21 20 39 20 28 0 47 22 35 41 -10 17 -51 10 -57 -10z"/>
<path d="M5190 6290 c0 -10 25 -57 57 -102 31 -46 67 -107 80 -135 14 -29 27
-53 30 -53 12 0 -6 81 -29 127 -29 57 -118 183 -130 183 -4 0 -8 -9 -8 -20z"/>
<path d="M5030 6280 c-8 -16 -8 -31 1 -57 21 -63 -14 -199 -62 -246 -11 -10
-19 -27 -19 -39 0 -18 4 -20 35 -15 19 3 35 3 35 1 0 -3 -13 -24 -29 -47 -16
-24 -50 -87 -77 -141 -48 -100 -72 -123 -106 -104 -13 6 -18 22 -19 51 l-1 42
-9 -40 c-11 -55 -2 -94 27 -107 39 -18 67 11 133 138 74 141 104 180 184 241
34 26 63 47 63 47 1 1 5 11 8 24 6 17 3 22 -11 22 -11 0 -24 -5 -30 -11 -9 -9
-123 -42 -123 -36 0 1 7 24 15 51 8 27 15 80 15 118 0 51 3 68 14 68 8 0 16
-7 20 -15 9 -25 26 -17 26 13 0 54 -67 84 -90 42z"/>
<path d="M3211 6248 c-11 -30 -6 -38 25 -38 32 0 43 28 19 46 -26 19 -34 18
-44 -8z"/>
<path d="M3114 6195 c-8 -33 -6 -35 42 -38 30 -1 39 2 42 16 5 26 -16 47 -49
47 -22 0 -30 -6 -35 -25z"/>
<path d="M4625 6149 c-9 -14 37 -86 87 -138 42 -43 108 -137 108 -153 0 -4 5
-8 10 -8 14 0 13 12 -10 73 -14 38 -44 79 -105 145 -46 50 -87 87 -90 81z"/>
<path d="M2970 6085 c0 -21 5 -25 29 -25 18 0 31 6 35 17 8 19 -9 33 -41 33
-18 0 -23 -6 -23 -25z"/>
<path d="M4807 6104 c-16 -17 -6 -44 19 -50 30 -8 47 6 42 32 -3 19 -47 32
-61 18z"/>
<path d="M4499 6090 c-9 -5 -20 -21 -23 -35 -9 -34 -7 -40 11 -37 12 3 14 -3
8 -27 -4 -20 -3 -31 4 -31 6 0 11 4 11 10 0 5 16 28 36 50 37 41 39 64 4 42
-21 -13 -50 -16 -50 -6 0 3 10 14 23 25 24 20 6 27 -24 9z"/>
<path d="M4646 5914 c-3 -9 -6 -25 -6 -37 0 -35 -15 -49 -56 -56 -33 -5 -39
-10 -39 -31 0 -20 6 -26 28 -28 26 -3 27 -6 27 -58 0 -48 -4 -58 -37 -95 -21
-23 -49 -46 -63 -52 -22 -9 -23 -11 -6 -15 10 -2 30 5 45 16 14 10 36 22 47
26 25 8 40 52 50 146 4 36 13 77 20 92 16 30 19 94 5 102 -5 3 -12 -1 -15 -10z"/>
<path d="M5099 5829 c-13 -25 -12 -26 19 -32 29 -6 52 7 52 28 0 21 -60 25
-71 4z"/>
<path d="M3690 5775 c0 -16 6 -25 15 -25 9 0 19 -8 23 -17 4 -10 33 -57 65
-106 74 -110 83 -138 54 -165 -34 -30 -67 -44 -134 -57 -58 -11 -63 -10 -63 6
0 21 -19 36 -21 17 -1 -7 -2 -26 -3 -43 -1 -28 -3 -30 -41 -29 -22 0 -48 4
-57 8 -13 6 -20 2 -27 -15 -14 -39 -61 -79 -92 -79 -39 0 -83 41 -104 97 -29
76 -117 213 -136 213 -15 0 -10 -47 6 -60 23 -19 80 -117 110 -190 32 -76 57
-107 96 -115 50 -11 88 4 117 46 25 35 31 38 75 39 40 0 49 4 58 23 9 20 18
23 65 24 52 1 74 10 147 58 l27 17 6 -31 c4 -17 10 -31 15 -31 11 0 11 -2 -1
39 -9 33 -7 37 35 79 74 73 137 162 142 202 4 31 2 37 -21 48 -34 15 -61 15
-74 0 -5 -7 -25 -55 -43 -105 -18 -51 -36 -93 -40 -93 -3 0 -12 21 -19 46 -7
25 -30 71 -52 102 -21 32 -38 67 -38 79 0 15 -9 24 -31 32 -48 16 -59 14 -59
-14z m335 -95 c3 -5 -1 -22 -9 -37 -15 -29 -78 -103 -88 -103 -5 0 37 123 48
142 7 11 41 10 49 -2z"/>
<path d="M4176 5758 c-24 -33 -21 -103 5 -129 l21 -21 24 23 c13 12 26 20 29
17 8 -7 -33 -119 -51 -139 -9 -10 -45 -30 -80 -46 -35 -15 -64 -31 -64 -35 0
-11 12 -10 60 7 23 8 55 15 70 15 33 0 69 37 79 82 4 18 9 63 10 100 2 77 -16
124 -55 138 -33 13 -30 13 -48 -12z m43 -52 c9 -10 9 -16 1 -21 -16 -10 -40 2
-40 20 0 19 24 20 39 1z"/>
<path d="M8020 5610 c0 -5 -15 -16 -32 -24 -18 -8 -116 -53 -218 -99 -102 -47
-250 -116 -330 -155 -199 -95 -341 -162 -346 -162 -3 0 -189 -85 -359 -165
-247 -116 -493 -228 -511 -232 -25 -6 -34 17 -34 84 0 59 -19 141 -37 158 -26
26 -31 7 -13 -48 10 -29 19 -91 21 -138 l4 -84 -40 -20 c-62 -31 -219 -103
-459 -211 -134 -61 -221 -105 -223 -115 -3 -9 -16 -22 -30 -28 -14 -7 -23 -14
-20 -18 11 -10 97 19 282 95 99 40 191 77 205 82 26 8 240 94 275 110 20 10
417 169 570 230 44 17 105 42 135 55 30 13 87 36 125 50 83 32 78 30 230 96
66 28 149 62 185 76 36 13 79 30 95 38 17 7 53 22 80 33 73 29 225 91 260 107
17 8 59 26 95 40 36 14 79 32 95 40 17 7 42 16 57 20 31 8 42 29 24 47 -7 7
-15 27 -19 45 -11 54 -35 103 -51 103 -9 0 -16 -4 -16 -10z m20 -60 c7 -17 13
-47 14 -66 l1 -36 -290 -120 c-159 -66 -299 -124 -310 -129 -11 -5 -153 -62
-315 -127 -397 -160 -820 -331 -845 -342 -53 -24 -155 -64 -202 -81 -29 -9
-67 -24 -85 -33 -66 -30 -220 -87 -229 -84 -4 2 31 21 79 42 48 22 137 63 197
92 328 158 427 204 432 204 3 0 31 12 62 26 31 15 90 42 131 61 41 19 131 61
200 93 69 32 204 94 300 138 96 44 270 125 385 179 116 55 239 113 275 129 36
16 87 41 115 55 66 34 70 34 85 -1z m-2300 -1040 c0 -5 -10 -10 -22 -10 -19 0
-20 2 -8 10 19 13 30 13 30 0z"/>
<path d="M3514 5595 c-11 -27 4 -45 36 -45 23 0 30 4 30 20 0 13 -10 24 -26
30 -33 13 -34 13 -40 -5z"/>
<path d="M6790 5555 c-11 -13 -10 -14 4 -9 9 3 16 10 16 15 0 13 -6 11 -20 -6z"/>
<path d="M3346 5513 c-7 -16 8 -33 30 -33 14 0 34 21 34 37 0 20 -57 16 -64
-4z"/>
<path d="M6724 5509 c-19 -22 -19 -22 1 -11 11 6 27 16 35 22 13 8 13 10 -1
10 -9 0 -24 -10 -35 -21z"/>
<path d="M417 5474 c-39 -77 -90 -300 -94 -414 -15 -365 4 -582 73 -820 8 -30
19 -71 24 -90 10 -40 78 -222 110 -295 40 -92 54 -119 128 -249 41 -71 81
-145 88 -163 15 -34 34 -44 34 -17 0 9 -16 43 -35 75 -19 33 -35 63 -35 66 0
4 -7 14 -15 22 -21 24 -185 359 -185 378 0 4 -13 42 -30 83 -51 130 -114 363
-126 470 -3 30 -8 66 -10 80 -27 172 0 660 37 660 5 0 9 -35 9 -77 0 -43 5
-109 10 -148 18 -126 128 -395 194 -473 22 -27 58 -70 80 -95 24 -30 96 -86
195 -151 207 -138 262 -188 289 -263 26 -69 63 -133 69 -116 2 6 -2 22 -11 35
-21 33 -61 176 -82 291 -18 101 -16 151 17 347 18 111 15 318 -6 412 -11 47
-23 90 -27 94 -12 11 -10 26 2 19 20 -13 9 5 -42 65 -23 26 -21 -14 2 -61 31
-59 47 -120 60 -227 12 -96 5 -209 -25 -387 -24 -145 -26 -209 -10 -276 8 -35
15 -70 15 -77 0 -8 -29 13 -64 45 -59 54 -121 99 -258 187 -86 55 -201 193
-252 301 -24 50 -51 117 -60 150 -9 33 -29 98 -44 145 -25 77 -27 99 -27 240
0 126 3 162 17 194 12 24 15 44 9 54 -7 13 -11 10 -24 -14z"/>
<path d="M6674 5474 c-18 -14 -18 -15 4 -4 12 6 22 13 22 15 0 8 -5 6 -26 -11z"/>
<path d="M6598 5426 c-26 -17 -48 -35 -48 -39 0 -4 21 6 48 24 58 40 56 38 51
43 -2 2 -25 -11 -51 -28z"/>
<path d="M5030 5434 c-14 -7 -33 -14 -42 -14 -10 0 -18 -7 -18 -15 0 -8 -4
-23 -9 -33 -5 -9 -18 -46 -29 -82 -11 -36 -41 -119 -67 -185 -59 -149 -121
-329 -129 -372 -10 -57 11 -36 44 45 18 42 38 86 44 97 7 11 38 76 68 145 31
69 71 159 91 200 60 129 96 218 90 224 -8 8 -13 7 -43 -10z m0 -49 c0 -3 -16
-39 -35 -81 -19 -41 -35 -77 -35 -80 0 -2 -15 -37 -33 -76 -19 -40 -46 -101
-62 -135 -52 -118 -43 -63 14 80 31 78 70 177 86 220 22 56 34 77 47 77 10 0
18 -2 18 -5z"/>
<path d="M6495 5354 c-51 -34 -69 -52 -29 -29 35 20 82 54 74 55 -3 0 -23 -12
-45 -26z"/>
<path d="M4549 5347 l-36 -10 -7 -76 c-17 -192 -36 -449 -36 -478 0 -69 33
-20 45 67 11 74 86 442 96 468 16 42 4 48 -62 29z m31 -45 c0 -32 -61 -317
-70 -326 -5 -5 -7 9 -4 30 2 22 9 97 14 168 6 70 13 132 16 137 10 17 44 10
44 -9z"/>
<path d="M3781 5110 c-36 -58 -37 -67 -14 -100 10 -14 68 -106 130 -205 61
-99 118 -189 126 -200 14 -19 16 -19 22 -2 5 12 -28 100 -100 268 -59 138
-108 258 -109 267 -5 32 -24 22 -55 -28z m79 -83 c0 -5 6 -23 14 -40 26 -62
83 -193 106 -244 13 -29 20 -56 17 -60 -4 -3 -7 -1 -7 6 0 7 -11 27 -25 45
-14 18 -25 36 -25 41 0 4 -16 30 -35 56 -19 27 -35 51 -35 54 0 2 -21 38 -47
80 l-46 76 17 37 18 36 24 -39 c13 -22 24 -44 24 -48z"/>
<path d="M6189 5143 c-13 -17 -13 -17 6 -3 11 8 22 16 24 17 2 2 0 3 -6 3 -6
0 -17 -8 -24 -17z"/>
<path d="M3400 4941 c-19 -10 -68 -22 -107 -26 -84 -8 -98 -25 -20 -25 68 0
115 14 152 45 35 29 24 32 -25 6z"/>
<path d="M6210 4606 c0 -18 5 -46 10 -62 6 -16 13 -68 18 -117 4 -48 12 -87
17 -87 14 1 12 158 -2 195 -6 17 -14 47 -18 68 -7 46 -25 49 -25 3z"/>
<path d="M4321 4539 c-80 -12 -147 -40 -233 -96 -204 -134 -320 -427 -263
-665 16 -66 82 -208 113 -243 19 -22 94 -82 132 -107 14 -8 40 -29 59 -45 19
-17 57 -37 85 -46 256 -80 524 -19 686 156 83 89 87 95 95 140 9 46 -13 51
-40 10 -30 -46 -67 -75 -142 -110 -132 -63 -298 -55 -436 22 -70 40 -141 108
-167 162 -13 26 -27 56 -32 65 -4 10 -8 60 -8 112 0 227 105 392 284 447 139
43 334 8 443 -80 34 -27 64 -47 67 -44 15 15 0 38 -86 125 -166 167 -342 230
-557 197z"/>
<path d="M1368 4393 c-20 -5 -24 -23 -5 -23 17 0 41 17 31 22 -5 2 -17 3 -26
1z"/>
<path d="M1355 4293 c-22 -13 -26 -18 -14 -21 9 -1 32 6 50 17 26 16 29 21 14
21 -11 -1 -33 -8 -50 -17z"/>
<path d="M1370 4223 c-39 -20 -63 -43 -46 -43 13 0 116 55 116 62 0 13 -22 7
-70 -19z"/>
<path d="M4781 4156 c-65 -87 -85 -103 -105 -87 -6 4 -49 25 -95 45 -122 52
-127 43 -46 -85 30 -48 55 -89 55 -92 0 -10 -62 -100 -112 -162 -37 -45 -45
-61 -33 -63 9 -2 21 1 28 6 7 5 28 13 47 17 19 4 61 16 94 26 32 11 66 19 75
18 9 0 43 -38 76 -84 35 -50 66 -83 75 -82 12 2 16 24 20 104 3 56 10 106 15
112 6 5 64 23 130 39 84 20 121 33 123 44 2 10 -8 17 -30 22 -54 11 -202 58
-216 69 -9 7 -12 41 -11 121 2 88 -1 112 -12 114 -8 1 -43 -35 -78 -82z"/>
<path d="M1431 4110 c-36 -22 -70 -40 -77 -40 -22 0 -64 -22 -58 -31 2 -5 15
-4 27 0 12 5 25 8 28 7 7 -1 169 94 169 100 0 12 -32 -1 -89 -36z"/>
<path d="M1550 4100 c0 -5 4 -10 9 -10 6 0 13 5 16 10 3 6 -1 10 -9 10 -9 0
-16 -4 -16 -10z"/>
<path d="M1438 4044 c-49 -25 -88 -49 -88 -54 0 -13 27 -13 35 1 4 5 30 21 58
35 53 25 110 64 92 63 -5 0 -49 -21 -97 -45z"/>
<path d="M1435 3975 c-82 -41 -157 -76 -165 -77 -8 -2 -19 -8 -25 -14 -5 -6
-50 -33 -100 -59 -178 -94 -375 -218 -375 -235 0 -21 36 -9 70 24 59 56 546
327 704 392 27 11 51 25 54 32 6 19 -6 15 -163 -63z"/>
<path d="M640 4030 c-12 -8 -10 -10 8 -10 13 0 20 4 17 10 -7 12 -6 12 -25 0z"/>
<path d="M840 3990 c-18 -12 -2 -12 25 0 13 6 15 9 5 9 -8 0 -22 -4 -30 -9z"/>
<path d="M985 3930 c-8 -13 5 -13 25 0 13 8 13 10 -2 10 -9 0 -20 -4 -23 -10z"/>
<path d="M694 3905 c-16 -12 -16 -14 -3 -15 9 0 22 7 29 15 16 19 0 19 -26 0z"/>
<path d="M944 3904 c-18 -14 -18 -15 4 -4 12 6 22 13 22 15 0 8 -5 6 -26 -11z"/>
<path d="M1113 3889 c-29 -17 -53 -33 -53 -35 0 -4 110 52 119 61 14 14 -21 1
-66 -26z"/>
<path d="M1005 3829 c-16 -10 -25 -19 -20 -19 6 0 24 9 40 20 17 11 26 20 20
19 -5 0 -23 -9 -40 -20z"/>
<path d="M798 3822 c-21 -10 -38 -20 -38 -24 0 -15 25 -7 55 17 34 29 33 29
-17 7z"/>
<path d="M824 3725 c-10 -8 -14 -15 -8 -15 5 0 19 7 30 15 10 8 14 15 8 15 -5
0 -19 -7 -30 -15z"/>
<path d="M761 3691 c-10 -6 -10 -10 -1 -16 7 -4 19 0 28 9 14 13 14 16 2 16
-8 0 -21 -4 -29 -9z"/>
<path d="M2623 543 c-3 -8 -13 -13 -24 -10 -10 3 -24 -2 -31 -10 -10 -12 -9
-18 7 -29 17 -13 21 -13 32 2 7 9 18 14 26 11 16 -6 37 10 37 29 0 18 -40 25
-47 7z"/>
<path d="M3586 544 c-4 -11 -13 -14 -30 -10 -31 8 -45 -22 -20 -41 14 -10 19
-10 29 3 6 9 19 14 29 12 26 -4 46 29 26 42 -21 13 -27 12 -34 -6z"/>
<path d="M4931 493 c-13 -29 -14 -53 -2 -53 5 0 11 -23 15 -51 4 -29 10 -65
13 -80 5 -28 4 -29 -36 -29 -40 0 -41 1 -41 35 0 41 -20 94 -42 113 -13 10
-16 7 -21 -25 -5 -28 -2 -42 12 -58 10 -11 21 -30 24 -42 5 -21 2 -23 -43 -23
-29 0 -50 5 -54 13 -3 6 -4 -6 -3 -28 l2 -40 238 -3 237 -2 0 25 c0 15 -5 57
-11 95 -8 49 -9 77 -1 99 10 27 8 34 -13 55 l-24 24 -12 -35 c-7 -22 -8 -38
-2 -42 6 -3 13 -26 17 -51 3 -25 9 -60 12 -77 6 -33 6 -33 -34 -33 -39 0 -39
1 -45 41 -7 52 -21 68 -36 41 -8 -15 -7 -27 4 -49 l15 -28 -52 -3 c-31 -2 -54
1 -58 9 -14 21 -21 126 -11 152 9 23 7 30 -13 50 l-24 24 -11 -24z"/>
<path d="M6321 493 c-13 -29 -14 -53 -2 -53 5 0 11 -23 15 -51 4 -29 10 -65
13 -80 5 -28 4 -29 -35 -29 -37 0 -41 3 -52 34 -22 68 -59 69 -99 1 -17 -29
-26 -35 -54 -35 -30 0 -40 8 -81 61 -26 33 -46 62 -44 63 2 1 18 8 36 15 26
11 32 19 32 42 l0 29 -37 -15 c-68 -29 -83 -43 -83 -79 0 -30 29 -73 42 -61 2
3 17 -9 33 -25 l29 -30 -66 0 -65 0 -6 41 c-3 23 -10 46 -15 51 -14 14 -37
-29 -24 -45 29 -38 23 -47 -33 -47 -52 0 -55 1 -55 25 0 13 -5 36 -12 50 l-12
26 -11 -28 c-9 -22 -9 -33 3 -50 l14 -23 -107 0 c-133 0 -150 7 -141 63 6 38
5 40 -7 22 -34 -49 -24 -122 18 -139 9 -3 150 -6 314 -6 237 0 301 3 316 14
16 12 25 12 58 0 22 -8 70 -14 108 -14 69 0 69 0 69 28 0 15 -5 56 -10 91 -8
45 -8 73 0 96 10 30 8 36 -14 58 l-24 24 -11 -24z m-103 -194 c12 -19 12 -20
-10 -14 -29 9 -31 11 -23 24 9 16 19 13 33 -10z"/>
<path d="M3036 482 c-14 -28 -14 -30 11 -41 14 -6 27 -10 28 -9 8 10 26 50 23
53 -2 1 -13 7 -25 14 -20 10 -24 8 -37 -17z"/>
<path d="M2925 474 c-9 -14 -15 -27 -13 -29 10 -8 50 -26 53 -23 8 10 26 50
23 53 -2 1 -13 7 -24 13 -19 10 -24 8 -39 -14z"/>
<path d="M5271 466 c-9 -22 -9 -47 -1 -100 6 -39 11 -93 13 -121 2 -49 3 -49
15 -22 15 36 14 156 -2 222 l-13 50 -12 -29z"/>
<path d="M5846 473 c-4 -10 -14 -13 -26 -10 -30 8 -47 -29 -20 -43 16 -9 22
-8 27 5 4 11 13 15 28 11 21 -5 35 8 35 34 0 15 -39 18 -44 3z"/>
<path d="M6421 467 c-8 -20 -8 -47 -1 -90 5 -34 10 -86 10 -114 0 -61 16 -71
26 -17 8 43 -2 192 -15 226 l-9 23 -11 -28z"/>
<path d="M2635 442 c-4 -19 -20 -41 -37 -53 -23 -17 -68 -84 -68 -103 0 -3 16
-8 35 -12 26 -5 41 -2 54 10 23 21 31 20 31 -2 0 -10 7 -28 16 -40 15 -21 21
-22 187 -22 123 0 179 4 197 13 22 11 28 11 38 0 17 -17 122 -17 146 0 16 11
25 11 55 1 60 -22 71 -19 71 21 0 38 -21 98 -38 109 -18 11 -39 -4 -66 -45
-26 -38 -27 -39 -87 -39 -54 0 -60 2 -54 18 16 37 16 60 0 75 -22 23 -71 21
-95 -3 -25 -25 -27 -58 -2 -56 25 2 21 -28 -5 -32 -20 -3 -23 1 -23 30 0 19
-6 43 -14 53 -13 18 -14 18 -25 -4 -8 -14 -9 -27 -3 -34 29 -38 23 -47 -32
-47 l-53 0 -6 41 c-7 52 -21 68 -36 41 -8 -15 -7 -27 4 -49 l15 -28 -72 -3
c-39 -2 -76 2 -81 7 -6 6 -18 50 -27 98 -16 79 -18 85 -25 55z m3 -89 c-3 -19
-48 -32 -48 -14 0 10 28 30 43 31 5 0 7 -8 5 -17z m673 -54 c10 -19 9 -20 -13
-14 -29 9 -31 11 -23 24 10 17 23 13 36 -10z"/>
<path d="M3598 464 c-5 -4 -8 -18 -8 -30 0 -14 -12 -31 -30 -44 -25 -18 -70
-85 -70 -104 0 -3 16 -8 35 -12 26 -5 41 -2 54 10 23 21 31 20 31 -2 0 -10 7
-28 16 -40 14 -20 23 -22 122 -22 69 0 116 5 132 13 22 11 28 11 38 0 17 -18
102 -17 129 2 18 13 22 13 33 0 9 -10 35 -13 106 -12 l94 1 0 63 c0 35 -4 63
-9 63 -17 0 -30 -26 -24 -48 6 -23 -3 -27 -26 -13 -8 5 -11 16 -6 31 5 16 3
21 -6 18 -7 -2 -13 -12 -15 -23 -4 -25 -22 -35 -66 -35 -28 0 -38 5 -43 20 -3
11 -4 24 0 29 3 5 1 12 -5 16 -5 3 -10 -1 -10 -9 0 -32 -38 -56 -86 -56 -40 0
-45 2 -39 18 25 59 7 92 -50 92 -24 0 -39 -7 -49 -22 -21 -30 -20 -56 2 -54
25 2 21 -28 -4 -32 -18 -3 -22 3 -27 39 -7 52 -21 68 -36 41 -8 -15 -7 -27 4
-49 l15 -28 -72 -3 c-39 -2 -76 2 -81 7 -6 6 -17 49 -26 96 -9 48 -19 83 -23
79z m0 -111 c-3 -19 -48 -32 -48 -14 0 10 28 30 43 31 5 0 7 -8 5 -17z"/>
<path d="M4205 461 c-6 -5 -21 -11 -35 -13 -14 -1 -26 -10 -28 -19 -4 -23 30
-34 44 -14 6 8 18 13 26 10 17 -7 43 19 33 35 -8 12 -28 13 -40 1z"/>
<path d="M4626 355 c-32 -24 -56 -68 -56 -102 0 -33 2 -35 65 -46 32 -5 -79
-39 -116 -35 -47 5 -57 28 -37 85 9 26 15 49 13 51 -10 10 -45 -82 -45 -117 0
-56 22 -74 79 -69 72 8 118 32 137 72 23 48 14 66 -36 66 -37 0 -40 2 -30 19
13 25 47 36 65 21 21 -17 31 13 17 46 -13 27 -28 30 -56 9z"/>
<path d="M2806 183 c-4 -10 -14 -13 -26 -10 -30 8 -47 -29 -20 -43 16 -9 22
-8 26 5 4 9 14 15 23 13 37 -6 58 35 22 45 -12 3 -22 -1 -25 -10z"/>
<path d="M3731 173 c-7 -14 -10 -27 -9 -28 2 -1 13 -7 25 -14 20 -10 24 -8 37
18 15 29 15 29 -13 39 -26 9 -30 7 -40 -15z"/>
<path d="M5032 179 c-17 -27 -15 -34 13 -47 22 -10 26 -9 40 17 14 28 14 29
-14 39 -23 8 -30 7 -39 -9z"/>
<path d="M5611 174 c-6 -15 -10 -28 -9 -29 10 -8 50 -26 53 -23 8 10 26 50 23
53 -6 5 -47 25 -51 25 -2 0 -9 -12 -16 -26z"/>
<path d="M4579 104 c-9 -11 -15 -12 -26 -2 -11 9 -16 9 -24 -3 -6 -9 -3 -18 8
-27 14 -10 19 -9 26 3 6 11 13 13 27 5 13 -7 19 -6 24 6 8 21 8 21 -8 27 -8 3
-20 -1 -27 -9z"/>
</g>
</svg>
